<svg xmlns="http://www.w3.org/2000/svg" viewBox="0 0 800 693.61"><path d="M617.62,693.61,800,254.5Q680,121.56,501,124.69L317.41,567.86c112-14.87,211.5,27.37,300.21,125.75Z"/><path d="M490.62,124.69l-67.47,4-22.88,56.05,67.48-6.32Z"/><path d="M463.77,188.19l-66.93,4.56L373.45,248.8l68-6.29Z"/><path d="M437.47,252.23l-66.87,4-23.48,55.53,68-5.19Z"/><path d="M411.2,316.24l-67.52,4-22.84,55.46L388.32,370Z"/><path d="M384.89,379.12l-67.48,4-22.9,55.49,68-5.73Z"/><path d="M358,444.3l-67.51,4.05-22.84,56,67.48-5.74Z"/><path d="M331.08,508.38l-66.9,4-23.42,56,68-6.32Z"/><path d="M352.27,121.81l-21.19,50.92,62.33-5.15,21.18-50.27Z"/><path d="M367.14,232.18l20.6-50.31-62.33,4.53-21.19,50.89Z" fill="#f30"/><path d="M341.35,293.92,362.53,243l-62.87,5.12-20.61,50.3Z" fill="#f30"/><path d="M273.32,312.26l-21.74,50.89,63.5-5.15,20.57-50.89Z"/><path d="M245.88,376.82l-20.57,50.86,62.88-5,20.64-51Z" fill="#02a5ff"/><path d="M220.16,438.63l-20.57,50.86,62.94-5.15,21.12-50.89Z" fill="#02a5ff"/><path d="M235.61,548.35,256.73,498l-62.26,4.54-21.19,50.34Z"/><path d="M349.42,93.82l-52.61,2.3L278,141.31l53.16-2.92Z"/><path d="M269.92,161.26l-18.86,44.61L304.22,203,322.6,159Z" fill="#f30"/><path d="M244.2,222.49l-18.31,45.16,53.16-2.85,18.31-44.06Z" fill="#f30"/><path d="M270.5,284.79l-53.16,1.68L199,331.66l53.23-2.81Z"/><path d="M190.45,351.72,171.6,396.88l53.74-2.82,18.27-44.58Z" fill="#02a5ff"/><path d="M165.25,413.46l-18.31,44,52.61-2.24,18.86-44.6Z" fill="#02a5ff"/><path d="M173.28,519.27l18.31-44.61L139,476.92l-18.86,44.51Z"/><path d="M244.2,77.2l-13.12,32,42.27-1.75,13.74-32.56Z"/><path d="M217.34,141.83l-13.15,32,42.31-1.65,13.73-32.62Z" fill="#f30"/><path d="M191.59,203.06l-13.16,32,42.93-1.17L235,200.21Z" fill="#f30"/><path d="M208.17,264.8l-42.92,2.3-13.7,32,42.92-1.06Z"/><path d="M138.43,331.66l-13.7,32.63,43.47-1.72,13.15-33.21Z" fill="#02a5ff"/><path d="M112.71,393.48,99.52,426.06l42.92-1.71,13.12-33.18Z" fill="#02a5ff"/><path d="M85.85,457.45,72.63,490.08l42.89-1.72,13.74-33.14Z"/><path d="M225.34,58.38l11.44-27.47-32.59,4.6L193.3,62.36Z"/><path d="M177.27,100.1,165.83,127l32.56-4,11.43-28Z" fill="#f30"/><path d="M151.55,161.92l-11.44,26.85,32.59-4,12-28Z" fill="#f30"/><path d="M125.24,225.89,113.8,252.82l32-4,12-28.06Z"/><path d="M98.39,290.56,87.57,317.38l32-3.95L131,286Z" fill="#02a5ff"/><path d="M72.63,352.27,61.81,379.12l32-4,11.44-28Z" fill="#02a5ff"/><path d="M45.78,416.31,35.47,442.65l32-3.5,11.44-28Z"/><path d="M165.25,2.3l-8,18.3L181.8,20l8.62-20Z"/><path d="M139,66.35l-8,18.88,24-.58,8-20Z" fill="#f30"/><path d="M113.26,127.51l-7.46,18.88h23.42l8-20Z" fill="#f30"/><path d="M86.92,191.62l-8,18.82h24l8.55-20Z"/><path d="M60.06,256.77l-8,18.3,24-.55,8-18.85Z" fill="#02a5ff"/><path d="M34.34,318.54l-8,18.86,24-.55,8.51-19.51Z" fill="#02a5ff"/><path d="M7.45,382.59,0,401.51l24-.65,8-20Z"/><path d="M530.28,339.08,588.59,199c-28.57-9.75-66.35-13.7-113.19-12.6L417.6,326c42.9-1.75,80.67,2.92,112.68,13.12Z" fill="#f30"/><path d="M663.84,407.18l58.38-141.25a224.14,224.14,0,0,0-92.62-57.21q-29.73,71.78-59.48,143.55c13.32,2.66,35,11.58,56.36,24.82C644.53,388.25,655.7,397.67,663.84,407.18Z" fill="#6c3"/><path d="M646.74,447.25C620.4,420.88,589,403.16,553,393.48L495.78,531.25c33.13,11.47,64.08,30.32,93.81,55.46Z" fill="#fc0"/><path d="M456.8,516.31l55.42-133.79c-34.89-11.44-72.56-16-112.6-13.16L343.45,505C377.17,503.16,414.49,507.21,456.8,516.31Z" fill="#02a5ff"/></svg>