<?xml version="1.0" encoding="UTF-8" standalone="no"?>
<!-- Created with Inkscape (http://www.inkscape.org/) -->

<svg
   version="1.1"
   id="svg132"
   width="181.44"
   height="31.360001"
   viewBox="0 0 181.44 31.360001"
   sodipodi:docname="Favorite.png"
   xml:space="preserve"
   inkscape:export-filename="Favorite.svg"
   inkscape:export-xdpi="96"
   inkscape:export-ydpi="96"
   xmlns:inkscape="http://www.inkscape.org/namespaces/inkscape"
   xmlns:sodipodi="http://sodipodi.sourceforge.net/DTD/sodipodi-0.dtd"
   xmlns:xlink="http://www.w3.org/1999/xlink"
   xmlns="http://www.w3.org/2000/svg"
   xmlns:svg="http://www.w3.org/2000/svg"><defs
     id="defs136"><linearGradient
       inkscape:collect="always"
       id="linearGradient1788"><stop
         style="stop-color:#ffaa00;stop-opacity:1;"
         offset="0"
         id="stop1784" /><stop
         style="stop-color:#a87000;stop-opacity:1;"
         offset="1"
         id="stop1786" /></linearGradient><linearGradient
       inkscape:collect="always"
       xlink:href="#linearGradient1788"
       id="linearGradient1849"
       gradientUnits="userSpaceOnUse"
       x1="0.79919785"
       y1="18.02022"
       x2="181.17683"
       y2="18.02022" /><linearGradient
       inkscape:collect="always"
       xlink:href="#linearGradient1788"
       id="linearGradient1851"
       gradientUnits="userSpaceOnUse"
       x1="0.79919785"
       y1="18.02022"
       x2="181.17683"
       y2="18.02022" /><linearGradient
       inkscape:collect="always"
       xlink:href="#linearGradient1788"
       id="linearGradient1853"
       gradientUnits="userSpaceOnUse"
       x1="0.79919785"
       y1="18.02022"
       x2="181.17683"
       y2="18.02022" /><linearGradient
       inkscape:collect="always"
       xlink:href="#linearGradient1788"
       id="linearGradient1855"
       gradientUnits="userSpaceOnUse"
       x1="0.79919785"
       y1="18.02022"
       x2="181.17683"
       y2="18.02022" /><linearGradient
       inkscape:collect="always"
       xlink:href="#linearGradient1788"
       id="linearGradient1857"
       gradientUnits="userSpaceOnUse"
       x1="0.79919785"
       y1="18.02022"
       x2="181.17683"
       y2="18.02022" /><linearGradient
       inkscape:collect="always"
       xlink:href="#linearGradient1788"
       id="linearGradient1859"
       gradientUnits="userSpaceOnUse"
       x1="0.79919785"
       y1="18.02022"
       x2="181.17683"
       y2="18.02022" /><linearGradient
       inkscape:collect="always"
       xlink:href="#linearGradient1788"
       id="linearGradient1861"
       gradientUnits="userSpaceOnUse"
       x1="0.79919785"
       y1="18.02022"
       x2="181.17683"
       y2="18.02022" /><linearGradient
       inkscape:collect="always"
       xlink:href="#linearGradient1788"
       id="linearGradient1863"
       gradientUnits="userSpaceOnUse"
       x1="0.79919785"
       y1="18.02022"
       x2="181.17683"
       y2="18.02022" /></defs><sodipodi:namedview
     id="namedview134"
     pagecolor="#ffffff"
     bordercolor="#666666"
     borderopacity="1.0"
     inkscape:showpageshadow="2"
     inkscape:pageopacity="0.0"
     inkscape:pagecheckerboard="0"
     inkscape:deskcolor="#d1d1d1"
     showgrid="false" /><g
     inkscape:groupmode="layer"
     inkscape:label="Image"
     id="g138"><path
       d="M 21.426417,29.737173 H 0.79919788 L 13.275494,14.973236 h 5.171222 l -7.843341,9.246685 h 6.766804 l 3.594865,-11.534326 q 0,-0.788179 -0.499821,-1.114985 -0.49982,-0.34603 -1.230328,-0.34603 h -6.15164 l 2.13385,-4.9213121 H 26.59764 q 0.692059,0 1.095761,0.461373 0.422925,0.4421492 0.422925,1.1918803 0,0.4805969 -0.153791,0.9227461 z"
       id="path1847"
       style="font-size:39.3705px;line-height:1.25;font-family:'Star Trek TNG-Title';-inkscape-font-specification:'Star Trek TNG-Title';letter-spacing:0px;word-spacing:0px;fill:url(#linearGradient1849);stroke-width:0.984261" /><path
       d="M 37.016981,29.737173 H 23.233461 L 33.402892,6.3032679 h 6.017073 L 31.672743,24.219921 h 7.708774 z"
       id="path1844"
       style="font-size:39.3705px;line-height:1.25;font-family:'Star Trek TNG-Title';-inkscape-font-specification:'Star Trek TNG-Title';letter-spacing:0px;word-spacing:0px;fill:url(#linearGradient1851);stroke-width:0.984261" /><path
       d="M 52.838231,29.737173 H 39.054712 L 49.224143,6.3032679 h 6.017073 L 47.493994,24.219921 h 7.708774 z"
       id="path1841"
       style="font-size:39.3705px;line-height:1.25;font-family:'Star Trek TNG-Title';-inkscape-font-specification:'Star Trek TNG-Title';letter-spacing:0px;word-spacing:0px;fill:url(#linearGradient1853);stroke-width:0.984261" /><path
       d="M 92.670104,6.3032679 90.555477,11.22458 H 72.71572 l 0.980418,-2.2684172 q 0.59594,-1.3648952 1.44179,-1.9992831 0.845851,-0.6536118 1.749373,-0.6536118 z M 79.55942,29.737173 H 67.236915 q -1.403343,0 -1.403343,-1.576358 0,-0.94197 0.576717,-2.364537 l 4.690625,-10.784594 h 5.978626 l -3.268059,7.516535 q -0.153791,0.326806 -0.153791,0.672836 0,0.519045 0.403701,0.768955 0.422926,0.249911 1.057314,0.249911 h 2.556775 q 0.672836,0 1.057313,-0.34603 0.403702,-0.365254 0.749731,-1.018866 l 0.672836,-1.384119 q 0.115343,-0.288358 0.115343,-0.59594 0,-0.422925 -0.230686,-0.692059 -0.211463,-0.288359 -0.403701,-0.288359 h -1.441791 l 2.114626,-4.921312 h 8.631521 l -5.209671,12.014923 q -0.499821,1.19188 -1.557134,1.980059 -1.038089,0.768955 -2.614447,0.768955 z"
       id="path1838"
       style="font-size:39.3705px;line-height:1.25;font-family:'Star Trek TNG-Title';-inkscape-font-specification:'Star Trek TNG-Title';letter-spacing:0px;word-spacing:0px;fill:url(#linearGradient1855);stroke-width:0.984261" /><path
       d="M 105.66545,29.737173 H 85.038227 L 97.514523,14.973236 h 5.171227 l -7.843346,9.246685 h 6.766806 l 3.59486,-11.534326 q 0,-0.788179 -0.49982,-1.114985 -0.49982,-0.34603 -1.23033,-0.34603 h -6.151636 l 2.13385,-4.9213121 h 11.380536 q 0.69206,0 1.09576,0.461373 0.42293,0.4421492 0.42293,1.1918803 0,0.4805969 -0.1538,0.9227461 z"
       id="path1835"
       style="font-size:39.3705px;line-height:1.25;font-family:'Star Trek TNG-Title';-inkscape-font-specification:'Star Trek TNG-Title';letter-spacing:0px;word-spacing:0px;fill:url(#linearGradient1857);stroke-width:0.984261" /><path
       d="m 121.56359,11.22458 -8.01636,18.512593 h -6.0363 L 117.68036,6.3032679 h 9.95797 q 1.55714,0 2.40299,0.4421491 0.86507,0.4229253 0.86507,1.1342087 0,0.3268059 -0.0769,0.4805969 0.51904,-0.7305073 0.90352,-1.1342087 0.38448,-0.4229252 0.92274,-0.6728356 0.5575,-0.2499104 1.40335,-0.2499104 h 7.47809 q 2.78746,0 2.78746,2.6144472 0,1.4033429 -0.82663,3.2680589 l -7.47809,17.551399 h -6.01707 l 7.15128,-16.647877 q 0.21146,-0.461373 0.21146,-0.749731 0,-1.114985 -2.24919,-1.114985 h -2.40298 l -7.99714,18.512593 h -6.01707 l 7.36274,-17.051578 q 0.1538,-0.365254 0.1538,-0.672836 0,-0.461373 -0.63439,-0.615164 -0.61517,-0.173015 -2.07618,-0.173015 z"
       id="path1832"
       style="font-size:39.3705px;line-height:1.25;font-family:'Star Trek TNG-Title';-inkscape-font-specification:'Star Trek TNG-Title';letter-spacing:0px;word-spacing:0px;fill:url(#linearGradient1859);stroke-width:0.984261" /><path
       d="M 153.89815,29.737173 H 138.46138 L 148.59236,6.3032679 h 15.41755 l -2.11463,4.9213121 h -9.4197 l -1.96083,4.536835 h 9.45814 l -2.13385,4.921312 h -9.45814 l -1.51869,3.537194 h 9.43892 z"
       id="path1829"
       style="font-size:39.3705px;line-height:1.25;font-family:'Star Trek TNG-Title';-inkscape-font-specification:'Star Trek TNG-Title';letter-spacing:0px;word-spacing:0px;fill:url(#linearGradient1861);stroke-width:0.984261" /><path
       d="m 156.85863,29.737173 2.47988,-5.517252 h 8.0548 q 2.15308,0 3.19117,-0.576717 1.03809,-0.576716 1.03809,-2.364536 0,-1.326448 -0.71129,-1.826269 -0.71128,-0.519044 -2.38376,-1.172656 -1.65325,-0.653612 -2.4991,-1.653254 -0.84585,-0.999641 -0.90352,-3.152715 0,-1.960836 0.51904,-3.5371935 0.51905,-1.5763579 1.86472,-2.5952233 1.34567,-1.0380893 3.71021,-1.0380893 h 9.95796 l -2.11462,4.9213121 h -4.95976 q -1.55714,0 -2.1723,0.422925 -0.59594,0.422926 -0.59594,1.63403 0,0.999642 1.15343,1.422567 1.15343,0.403701 2.44143,0.788179 1.288,0.384477 2.19153,1.44179 0.90352,1.057314 0.90352,3.344955 0,1.864716 -0.67284,3.575641 -0.67283,1.710925 -1.94161,3.037372 -1.26877,1.326448 -3.07582,2.095403 -1.78782,0.749731 -3.864,0.749731 z"
       id="path1826"
       style="font-size:39.3705px;line-height:1.25;font-family:'Star Trek TNG-Title';-inkscape-font-specification:'Star Trek TNG-Title';letter-spacing:0px;word-spacing:0px;fill:url(#linearGradient1863);stroke-width:0.984261" /></g></svg>
