<?xml version="1.0" encoding="utf-8"?>
<!-- Generator: Adobe Illustrator 16.0.0, SVG Export Plug-In . SVG Version: 6.00 Build 0)  -->
<!DOCTYPE svg PUBLIC "-//W3C//DTD SVG 1.1//EN" "http://www.w3.org/Graphics/SVG/1.1/DTD/svg11.dtd">
<svg version="1.1" id="Layer_1" xmlns="http://www.w3.org/2000/svg" xmlns:xlink="http://www.w3.org/1999/xlink" x="0px" y="0px"
	 width="382.9px" height="102.4px" viewBox="0 0 382.9 102.4" enable-background="new 0 0 382.9 102.4" xml:space="preserve">
<g opacity="0.7">
	<path d="M113,59.2c0,4.9-1.6,8.7-4.8,11.4c-3.2,2.699-7.7,4.1-13.5,4.1c-2.4,0-4.7-0.3-6.8-0.8s-4-1.3-5.6-2.4V60
		c1.8,1.2,4,2.101,6.3,2.9c2.4,0.8,4.5,1.2,6.5,1.2c1.6,0,2.9-0.301,3.7-1c0.8-0.7,1.3-1.601,1.3-2.9c0-0.6-0.1-1.1-0.4-1.7
		c-0.3-0.6-0.6-1-1.1-1.5s-1.8-1.7-3.9-3.399c-2.6-2.101-4.4-4.2-5.6-6.301c-1.2-2.1-1.7-4.5-1.7-7.1c0-2.9,0.7-5.5,2.2-7.8
		c1.4-2.3,3.5-4.101,6.1-5.3c2.6-1.301,5.6-1.9,8.8-1.9c5.2,0,10,1.2,14.2,3.5l-4.4,9.8c-3.8-1.899-6.9-2.899-9.6-2.899
		c-1.4,0-2.5,0.3-3.2,0.899c-0.8,0.601-1.1,1.5-1.1,2.7c0,1.1,0.4,2.1,1.1,3s2.1,2.2,4.2,3.7c2.6,1.899,4.5,3.899,5.8,6
		C112.3,54.1,113,56.5,113,59.2z"/>
	<path d="M145.3,74h-28.6l10.2-48.1h28.6L153.4,36.3h-15.7l-1.5,7.601h14.6L148.4,54.3h-14.6l-1.9,9.101h15.7L145.3,74z"/>
	<path d="M172.1,74h-12.9l7.8-37.5h-10.4l2.3-10.6h33.8l-2.3,10.6h-10.5L172.1,74z"/>
	<path d="M207.2,74h-12.9l7.801-37.5h-10.4l2.3-10.6h33.8l-2.3,10.6H215L207.2,74z"/>
	<path d="M222.601,74L232.8,25.9h13.1L235.7,74H222.601z"/>
	<path d="M286.899,74h-15l-9.5-33.8h-0.299c-0.601,6.4-1.301,11-1.9,13.8L256,74h-11.5l10.2-48.1h15l9.4,32.399h0.299
		C280,53.1,280.7,49.1,281.3,46.1L285.601,26H297L286.899,74z"/>
	<path d="M318.7,45.8h20.1L333.3,72c-5.5,1.8-11.2,2.7-17.1,2.7c-5.7,0-10.2-1.7-13.3-5c-3.2-3.3-4.7-8.1-4.7-14.2
		c0-5.899,1.2-11.1,3.6-15.899c2.4-4.801,5.7-8.301,9.9-10.801s9.1-3.699,14.7-3.699c5.8,0,10.8,1.199,14.699,3.5L336.3,38.8
		c-3.399-2-6.7-3-10.1-3c-2.9,0-5.5,0.801-7.7,2.4s-4,3.9-5.3,7.1c-1.3,3.101-2,6.4-2,10c0,5.801,2.3,8.7,6.899,8.7
		c1.4,0,2.801-0.2,4.4-0.5l1.7-7.6h-7.5L318.7,45.8z"/>
	<path d="M371.8,59.2c0,4.9-1.6,8.7-4.8,11.4c-3.2,2.699-7.7,4.1-13.5,4.1c-2.4,0-4.7-0.3-6.8-0.8c-2.2-0.5-4-1.3-5.601-2.4V60
		c1.801,1.2,4,2.101,6.301,2.9c2.399,0.8,4.5,1.2,6.5,1.2c1.6,0,2.899-0.301,3.699-1c0.801-0.7,1.301-1.601,1.301-2.9
		c0-0.6-0.101-1.1-0.4-1.7c-0.3-0.5-0.6-1-1.1-1.5s-1.801-1.7-3.9-3.399c-2.6-2.101-4.4-4.2-5.6-6.301c-1.2-2.1-1.7-4.5-1.7-7.1
		c0-2.9,0.7-5.5,2.2-7.8c1.399-2.3,3.5-4.101,6.1-5.3c2.6-1.301,5.6-1.9,8.8-1.9c5.2,0,10,1.2,14.2,3.5l-4.4,9.8
		c-3.8-1.899-6.899-2.899-9.6-2.899c-1.4,0-2.5,0.3-3.2,0.899c-0.8,0.601-1.1,1.5-1.1,2.7c0,1.1,0.399,2.1,1.1,3s2.101,2.2,4.2,3.7
		c2.6,1.899,4.5,3.899,5.8,6C371.1,54.1,371.8,56.5,371.8,59.2z"/>
</g>
<g>
	<g>
		<g>
			<defs>
				<rect id="SVGID_1_" x="-1" y="8.6" width="84.9" height="85.1"/>
			</defs>
			<clipPath id="SVGID_2_">
				<use xlink:href="#SVGID_1_"  overflow="visible"/>
			</clipPath>
			<path clip-path="url(#SVGID_2_)" fill="#1B75BB" d="M43.8,83.8h-8.7c-1.3,0-2.4-1.1-2.4-2.399v-5.8C30.7,75,28.8,74.3,27,73.2
				l-4.1,4.1c-0.9,0.9-2.5,0.9-3.5,0l-6.1-6.1c-0.5-0.5-0.7-1.1-0.7-1.7c0-0.7,0.3-1.3,0.7-1.7l4.2-4.199C16.5,61.8,15.8,60,15.3,58
				h-6C8,58,6.9,56.9,6.9,55.6v-8.7c0-1.3,1.1-2.4,2.4-2.4h6.1c0.6-1.899,1.3-3.7,2.3-5.3l-4.4-4.4c-0.5-0.5-0.7-1.1-0.7-1.699
				c0-0.7,0.3-1.301,0.7-1.7l6.1-6.2c0.9-0.9,2.5-0.9,3.5,0l4.5,4.5c1.7-0.9,3.4-1.6,5.2-2.1V21c0-1.3,1.1-2.399,2.4-2.399h8.7
				c1.3,0,2.4,1.1,2.4,2.399v6.5c1.8,0.5,3.5,1.2,5.2,2.101L56,25c0.9-0.899,2.5-0.899,3.4,0l6.2,6.2c1,1,1,2.5,0,3.4l-4.5,4.5
				C62,40.8,62.8,42.5,63.3,44.3h6.3c1.3,0,2.4,1.101,2.4,2.4v8.7c0,1.3-1.1,2.399-2.4,2.399h-6.1c-0.5,1.9-1.2,3.801-2.2,5.5
				l4.3,4.301c1,1,1,2.5,0,3.399l-6.2,6.2c-0.9,0.9-2.5,0.9-3.5,0l-4.1-4.1c-1.8,1-3.7,1.8-5.6,2.399v5.8
				C46.3,82.7,45.2,83.8,43.8,83.8L43.8,83.8z M27.8,69.1l0.6,0.399c1.9,1.101,3.9,2,6,2.5l0.7,0.2v6.7c0,0.2,0.2,0.399,0.4,0.399h8
				c0.2,0,0.4-0.199,0.4-0.399v-6.8l0.7-0.2c2.1-0.5,4.1-1.4,6-2.5l0.6-0.4l4.8,4.8c0.1,0.101,0.2,0.101,0.3,0.101
				c0.1,0,0.2,0,0.3-0.101l5.6-5.6c0.1-0.1,0.1-0.4,0-0.5l-4.9-4.9l0.4-0.6c1.1-1.8,1.8-3.8,2.3-5.9l0.2-0.699h7.1
				c0.2,0,0.4-0.2,0.4-0.4v-8c0-0.2-0.2-0.4-0.4-0.4h-7.2L59.9,46.1c-0.5-2-1.3-3.9-2.4-5.601L57,39.9l5.2-5.2
				c0.1-0.1,0.1-0.4,0-0.5l-5.6-5.6C56.5,28.5,56.4,28.5,56.3,28.5c-0.1,0-0.2,0-0.3,0.101L50.8,33.8L50.2,33.4
				c-1.7-1-3.6-1.8-5.6-2.3l-0.7-0.2v-7.4c0-0.2-0.2-0.399-0.4-0.399h-8c-0.2,0-0.4,0.199-0.4,0.399v7.4l-0.7,0.2
				c-2,0.5-3.9,1.199-5.6,2.3L28.2,33.8L23,28.5c-0.1-0.1-0.2-0.1-0.3-0.1c-0.1,0-0.2,0-0.3,0.1L16.8,34.1
				c-0.1,0.1-0.1,0.199-0.1,0.3c0,0.1,0,0.2,0.1,0.3l5.1,5.1L21.5,40.4c-1.1,1.8-1.9,3.7-2.5,5.7L18.8,46.8h-7.1
				c-0.2,0-0.4,0.2-0.4,0.4v8c0,0.2,0.2,0.4,0.4,0.4h6.9l0.2,0.699c0.5,2.101,1.3,4.101,2.4,6l0.4,0.601l-4.8,4.8
				c-0.1,0.1-0.1,0.2-0.1,0.3c0,0.101,0,0.2,0.1,0.3l5.6,5.601c0.1,0.1,0.2,0.1,0.3,0.1c0.1,0,0.2,0,0.3-0.1L27.8,69.1z M39.5,55.9
				c-2.6,0-4.7-2.101-4.7-4.7s2.1-4.7,4.7-4.7s4.7,2.101,4.7,4.7S42.1,55.9,39.5,55.9L39.5,55.9z M39.5,38.3
				c-7.1,0-12.9,5.801-12.9,12.9s5.8,12.9,12.9,12.9S52.4,58.3,52.4,51.2S46.6,38.3,39.5,38.3L39.5,38.3z"/>
		</g>
	</g>
</g>
<g>
	<g>
		<g>
			<defs>
				<rect id="SVGID_3_" x="-2" y="6.2" width="84.9" height="85.1"/>
			</defs>
			<clipPath id="SVGID_4_">
				<use xlink:href="#SVGID_3_"  overflow="visible"/>
			</clipPath>
			<path clip-path="url(#SVGID_4_)" fill="#4C4C4E" d="M42.8,81.4h-8.7c-1.3,0-2.4-1.101-2.4-2.4v-5.8c-2-0.6-3.9-1.3-5.7-2.4
				L21.9,74.9c-0.9,0.899-2.5,0.899-3.5,0l-6.1-6.2c-0.5-0.5-0.7-1.1-0.7-1.7c0-0.7,0.3-1.3,0.7-1.7l4.2-4.199
				c-1-1.801-1.7-3.601-2.2-5.601h-6c-1.3,0-2.4-1.1-2.4-2.399v-8.7C5.9,43.1,7,42,8.3,42h6.1c0.6-1.899,1.3-3.7,2.3-5.399l-4.4-4.4
				c-0.5-0.5-0.7-1.1-0.7-1.7c0-0.7,0.3-1.3,0.7-1.7l6.1-6.199c0.9-0.9,2.5-0.9,3.5,0l4.5,4.5c1.7-0.9,3.4-1.601,5.2-2.101v-6.5
				c0-1.3,1.1-2.399,2.4-2.399h8.7c1.3,0,2.4,1.1,2.4,2.399V25c1.8,0.5,3.5,1.2,5.2,2.101l4.6-4.601c0.9-0.899,2.5-0.899,3.4,0
				l6.2,6.2c1,1,1,2.5,0,3.5L60,36.7c0.9,1.7,1.7,3.4,2.2,5.2h6.3c1.3,0,2.4,1.1,2.4,2.399V53c0,1.3-1.1,2.4-2.4,2.4h-6.1
				c-0.5,1.899-1.2,3.8-2.2,5.5l4.3,4.3c1,1,1,2.5,0,3.5l-6.2,6.2c-0.9,0.899-2.5,0.899-3.5,0L50.7,70.8c-1.8,1-3.7,1.801-5.6,2.4
				V79C45.2,80.3,44.1,81.4,42.8,81.4L42.8,81.4z M26.7,66.6L27.3,67c1.9,1.101,3.9,2,6,2.5l0.7,0.2v6.7c0,0.2,0.2,0.399,0.4,0.399
				h8c0.2,0,0.4-0.199,0.4-0.399v-6.8l0.7-0.2c2.1-0.5,4.1-1.4,6-2.5l0.6-0.4l4.8,4.8C55,71.4,55.1,71.4,55.2,71.4
				c0.1,0,0.2,0,0.3-0.101l5.6-5.6c0.1-0.1,0.1-0.4,0-0.5l-4.9-4.9l0.4-0.6c1.1-1.8,1.8-3.8,2.3-5.9l0.2-0.699h7.1
				c0.2,0,0.4-0.2,0.4-0.4v-8c0-0.2-0.2-0.4-0.4-0.4H59L58.8,43.6c-0.5-2-1.3-3.9-2.4-5.601L56,37.4l5.2-5.2c0.1-0.1,0.1-0.4,0-0.5
				l-5.6-5.6C55.4,26,55.3,26,55.2,26c-0.1,0-0.2,0-0.3,0.101L49.7,31.3L49.1,30.9c-1.7-1-3.6-1.8-5.6-2.3l-0.7-0.2V21
				c0-0.2-0.2-0.399-0.4-0.399h-8C34.2,20.6,34,20.8,34,21v7.4l-0.7,0.2c-2,0.5-3.9,1.199-5.6,2.3L27.1,31.3L22,26.1
				C21.9,26,21.8,26,21.7,26c-0.1,0-0.2,0-0.3,0.101l-5.6,5.6c-0.1,0.1-0.1,0.2-0.1,0.3c0,0.101,0,0.2,0.1,0.3l5.1,5.101L20.5,38
				c-1.1,1.8-1.9,3.7-2.5,5.7l-0.2,0.7h-7.1c-0.2,0-0.4,0.2-0.4,0.399v8c0,0.2,0.2,0.4,0.4,0.4h6.9l0.2,0.7c0.5,2.1,1.3,4.1,2.4,6
				l0.4,0.6l-4.8,4.8c-0.1,0.101-0.1,0.2-0.1,0.301c0,0.1,0,0.199,0.1,0.3l5.6,5.6c0.1,0.101,0.2,0.101,0.3,0.101
				c0.1,0,0.2,0,0.3-0.101L26.7,66.6z M38.5,53.4c-2.6,0-4.7-2.101-4.7-4.7s2.1-4.7,4.7-4.7s4.7,2.101,4.7,4.7
				C43.1,51.3,41,53.4,38.5,53.4L38.5,53.4z M38.5,35.8c-7.1,0-12.9,5.801-12.9,12.9s5.8,12.9,12.9,12.9S51.4,55.8,51.4,48.7
				S45.6,35.8,38.5,35.8L38.5,35.8z"/>
		</g>
	</g>
</g>
</svg>
