<?xml version="1.0" encoding="UTF-8"?>
<svg width="978.34pt" height="290.14pt" version="1.1" viewBox="0 0 978.34 290.14" xml:space="preserve" xmlns="http://www.w3.org/2000/svg"><g transform="translate(-229.9 -423.71)"><g transform="matrix(10 0 0 10 -2069.1 -3813.3)" fill="#0072ce"><rect x="312.03" y="424.45" width="4.4983" height="28.276"/><path d="m241.01 423.73c-1.4168 0-2.6256 0.87804-3.0938 2.1328v0.0234l-8.0156 26.836h4.8047l1.8516-7.2891h8.9297l1.9453 7.2891h4.9219l-8.2266-26.859h-0.0234c-0.47289-1.2487-1.6757-2.1328-3.0938-2.1328zm-0.0469 6.1641 3.0938 11.766h-6.1172z"/><path d="m249.75 424.34v3.7969h6.9844v24.586h4.5v-24.586h7.0078v-3.7969z"/><path d="m302.67 442.45c-0.13082-0.22416-0.21048-0.49381-0.21048-0.79324 0-0.27091 0.0691-0.51574 0.17514-0.72667 0.16677-0.26263 0.46529-0.41193 0.664-0.53809 2.342-1.424 4.0057-4.4175 4.0057-7.8837 0-4.6491-2.9263-8.4582-6.555-8.7523-0.45197-0.0596-1.4724-0.0533-1.4724-0.0533h-5.1198 3e-3c-1.7756 0-3.2202 1.9228-3.2202 4.2922l7e-3 7e-3v24.712h4.3727v-22.948h-3e-3c0-0.71964 0.43802-1.3061 0.97678-1.3061h2.9496c0.26783 0 1.0688 0.0207 1.2279 0.0504v2e-3c1.3041 0.14269 2.3643 1.3818 2.6715 3.0208 0.0167 0.0674 0.0285 0.13359 0.0378 0.20143v0.0149c0.0167 0.10015 0.0251 0.19561 0.0344 0.29321 0.0158 0.1522 0.0183 0.30729 0.0183 0.46529 0 1.5096-0.62339 2.8302-1.5472 3.515-0.18692 0.14807-0.38098 0.27751-0.58526 0.38835-0.14507 0.0876-0.3134 0.16875-0.48916 0.24774-1.1801 0.55503-1.6857 0.88342-2.178 1.515-0.5521 0.7705-0.90145 1.8115-0.91075 2.9625-9e-3 1.0811 0.27341 2.0696 0.75358 2.8347l5.555 8.7456h5.2016l-6.3622-10.267"/><path d="m277.36 423.73c-1.4168 0-2.6256 0.87804-3.0938 2.1328v0.0234l-8.0156 26.836h4.8047l1.8516-7.2891h8.9297l1.9453 7.2891h4.9219l-8.2266-26.859h-0.0234c-0.47289-1.2487-1.6757-2.1328-3.0938-2.1328zm-0.0469 6.1641 3.0938 11.766h-6.1172z"/><path d="m319.77 451.7 4.2559 0.68643 0.31682-1.2778c-0.61251-0.3485-0.73924-0.84484-0.73924-1.2145 0-0.83428 0.65475-1.3834 1.3729-1.3834 0.74979 0 1.3729 0.63363 1.3729 1.3729 0 0.55971-0.36962 1.0877-0.9082 1.2567v1.5841c1.3517-0.21121 2.2916-1.3729 2.2916-2.883 0-1.922-1.5207-2.9041-2.7985-2.9041-1.1511 0-2.619 0.84484-2.619 2.6084 0 0.67587 0.17953 0.98212 0.32738 1.2144l-1.5418-0.27457v-2.9041h-1.3306z"/><path d="m327.58 446.65v-5.3119h-1.3306v3.1576c-0.60195-0.62307-1.1933-1.2461-1.7847-1.8586-0.87652-0.91876-1.5207-1.2461-2.4289-1.2567-1.2884 0-2.4184 0.92933-2.4184 2.5662 0 0.55971 0.16897 1.5735 1.0455 2.186 0.58083 0.43298 1.225 0.52802 1.827 0.54914v-1.5102c-0.8026-0.0106-1.489-0.32737-1.489-1.0877 0-0.64419 0.4013-1.13 1.1722-1.13 0.89765 0.0106 1.4362 0.63363 2.1227 1.4151 0.68644 0.76036 1.3623 1.5207 2.0487 2.2811z"/><path d="m323.75 441.05c2.091 0 3.9813-1.6897 3.9813-4.0869 0-2.3867-1.8375-4.1186-4.0552-4.1186-2.2177 0-4.0552 1.7425-4.0552 4.108 0 2.1755 1.6158 4.0975 4.1186 4.0975zm-0.0845-1.5735c-1.3729 0-2.6612-0.97156-2.6612-2.5345 0-1.5946 1.3729-2.524 2.6824-2.524 1.2884 0 2.6612 0.92933 2.6612 2.5134 0 1.5207-1.2461 2.5451-2.6718 2.5451z"/><path d="m323.75 432.65c2.091 0 3.9813-1.6897 3.9813-4.0869 0-2.3867-1.8375-4.1186-4.0552-4.1186-2.2177 0-4.0552 1.7425-4.0552 4.108 0 2.1755 1.6158 4.0975 4.1186 4.0975zm-0.0845-1.5735c-1.3729 0-2.6612-0.97157-2.6612-2.5345 0-1.5946 1.3729-2.524 2.6824-2.524 1.2884 0 2.6612 0.92932 2.6612 2.5134 0 1.5207-1.2461 2.5451-2.6718 2.5451z"/></g></g></svg>
