<?xml version="1.0" encoding="UTF-8" standalone="no"?>
<!-- Created with Inkscape (http://www.inkscape.org/) -->
<svg xmlns:dc="http://purl.org/dc/elements/1.1/" xmlns:cc="http://creativecommons.org/ns#" xmlns:rdf="http://www.w3.org/1999/02/22-rdf-syntax-ns#" xmlns:svg="http://www.w3.org/2000/svg" xmlns="http://www.w3.org/2000/svg" xmlns:sodipodi="http://sodipodi.sourceforge.net/DTD/sodipodi-0.dtd" xmlns:inkscape="http://www.inkscape.org/namespaces/inkscape" width="132.29166mm" height="119.96396mm" viewBox="0 0 132.29165 119.96396" version="1.1" id="svg1952" inkscape:version="0.92.4 (5da689c313, 2019-01-14)" sodipodi:docname="Konami_logo_1998_box.svg">
  <defs id="defs1946">
    <clipPath clipPathUnits="userSpaceOnUse" id="clipPath831">
      <path d="M 11,12 H 583 V 831 H 11 Z" id="path829" inkscape:connector-curvature="0"/>
    </clipPath>
  </defs>
  <sodipodi:namedview id="base" pagecolor="#ffffff" bordercolor="#666666" borderopacity="1.0" inkscape:pageopacity="0.0" inkscape:pageshadow="2" inkscape:zoom="0.9899495" inkscape:cx="399.32483" inkscape:cy="163.96862" inkscape:document-units="mm" inkscape:current-layer="layer1" showgrid="false" fit-margin-top="0" fit-margin-left="0" fit-margin-right="0" fit-margin-bottom="0" inkscape:window-width="1920" inkscape:window-height="1027" inkscape:window-x="-8" inkscape:window-y="-8" inkscape:window-maximized="1"/>
  <metadata id="metadata1949">
    <rdf:RDF>
      <cc:Work rdf:about="">
        <dc:format>image/svg+xml</dc:format>
        <dc:type rdf:resource="http://purl.org/dc/dcmitype/StillImage"/>
        <dc:title/>
      </cc:Work>
    </rdf:RDF>
  </metadata>
  <g inkscape:label="Layer 1" inkscape:groupmode="layer" id="layer1" transform="translate(-121.98777,-60.946954)">
    <g id="g854">
      <g id="g825" transform="matrix(0.32946896,0,0,-0.32946896,109.62281,414.43851)">
        <g clip-path="url(#clipPath831)" id="g827">
          <path inkscape:connector-curvature="0" id="path833" style="fill:#ffffff;fill-opacity:1;fill-rule:nonzero;stroke:none" d="m 10,831 h 1 v 1 h -1 z"/>
        </g>
      </g>
      <path inkscape:connector-curvature="0" id="path1385" style="fill:#ffffff;fill-opacity:1;stroke:#000000;stroke-width:0.66370827;stroke-linecap:butt;stroke-linejoin:miter;stroke-miterlimit:4;stroke-dasharray:none;stroke-opacity:1" d="M 122.31962,180.57906 H 234.558 V 61.278808 H 122.31962 Z"/>
      <path inkscape:connector-curvature="0" id="path1387" style="fill:#ee9c00;fill-opacity:1;fill-rule:nonzero;stroke:none;stroke-width:1.32741654" d="m 160.83196,122.90545 c 1.44026,-4.4641 3.44732,-12.33304 7.24371,-17.92543 1.58627,-2.34156 3.92915,-4.03137 5.88443,-5.1079 1.13496,-0.627854 2.2274,-0.819003 3.39024,-1.092483 1.02212,-0.24307 2.22209,-0.483174 3.12474,-0.54425 0.56416,-0.03758 1.13891,-0.12078 1.74156,-0.180602 0.66104,-0.06093 1.20265,-0.12229 1.80262,-0.241572 0.54026,-0.06093 1.85176,-0.27092 2.28185,-0.361227 1.1429,-0.241571 2.22078,-0.662353 2.94289,-0.905284 0.65043,-0.217479 1.38051,-0.603954 2.04287,-0.845568 0.13396,-0.04776 0.82566,-0.488475 1.01948,-0.602638 2.72917,-1.600865 5.16763,-4.341994 6.28531,-6.435328 1.78934,-3.353031 3.23226,-6.747261 4.4694,-10.332603 0.54026,-1.567677 0.89866,-2.532711 1.74024,-4.943283 h -26.42884 c -1.44159,4.640644 -2.64289,8.141022 -4.44687,12.845409 -1.69245,4.417626 -4.77738,7.995028 -9.07023,9.952945 -4.788,2.184955 -9.94899,1.830505 -14.89495,3.499093 -9.6742,3.253461 -12.73523,14.232561 -15.49759,23.220501 h 26.36914"/>
      <path inkscape:connector-curvature="0" id="path1389" style="fill:#df0032;fill-opacity:1;fill-rule:nonzero;stroke:none;stroke-width:1.32741654" d="m 178.47598,147.11088 c 1.44026,-4.46409 3.44596,-12.33168 7.24107,-17.92675 1.58758,-2.34155 3.93178,-4.02871 5.88574,-5.10657 1.13628,-0.62655 2.22876,-0.81902 3.39025,-1.09513 1.02344,-0.24157 2.22341,-0.48186 3.12474,-0.54156 0.56415,-0.0376 1.13891,-0.12192 1.74155,-0.18326 0.6624,-0.0597 1.2013,-0.11815 1.80131,-0.24044 0.54157,-0.0583 1.8544,-0.26941 2.28316,-0.36121 1.14291,-0.24157 2.22078,-0.66241 2.94289,-0.90533 0.65043,-0.21899 1.38184,-0.60396 2.0442,-0.84421 0.13283,-0.0489 0.82435,-0.48983 1.01812,-0.6 2.73052,-1.60351 5.16766,-4.34731 6.28666,-6.43929 1.78803,-3.35307 3.23225,-6.74595 4.46677,-10.33128 0.54289,-1.56904 0.89999,-2.53406 1.74156,-4.947311 h -26.42752 c -1.44292,4.645981 -2.6429,8.143731 -4.44687,12.850761 -1.69245,4.41761 -4.7787,7.99103 -9.07024,9.94899 -4.78931,2.18754 -9.95031,1.8358 -14.89495,3.49905 -9.67419,3.25882 -12.73523,14.23386 -15.49758,23.22313 h 26.36914"/>
      <path inkscape:connector-curvature="0" id="path1391" style="fill:#000000;fill-opacity:1;fill-rule:nonzero;stroke:none;stroke-width:1.32741654" d="m 144.55387,154.24311 h 4.66852 l -4.90348,6.2654 5.29901,7.95785 h -4.88751 l -4.68712,-7.56494 h -0.0384 v 7.56494 h -3.94112 v -14.22325 h 3.94112 v 6.24415 h 0.0384 l 4.51058,-6.24415"/>
      <path inkscape:connector-curvature="0" id="path1393" style="fill:#000000;fill-opacity:1;fill-rule:nonzero;stroke:none;stroke-width:1.32741654" d="m 149.09761,161.35408 c 0,-4.68843 2.66012,-7.40699 7.36715,-7.40699 4.70836,0 7.36848,2.71856 7.36848,7.40699 0,4.68843 -2.66012,7.40699 -7.36848,7.40699 -4.70703,0 -7.36715,-2.71856 -7.36715,-7.40699 z m 7.36715,-4.64862 c -2.6774,0 -3.23094,2.48225 -3.23094,4.70833 0,2.10794 0.55354,4.58755 3.23094,4.58755 2.68137,0 3.23227,-2.47961 3.23227,-4.58755 0,-2.22608 -0.5509,-4.70833 -3.23227,-4.70833"/>
      <path inkscape:connector-curvature="0" id="path1395" style="fill:#000000;fill-opacity:1;fill-rule:nonzero;stroke:none;stroke-width:1.32741654" d="m 165.51245,154.24311 h 5.51541 l 4.76673,10.59675 0.0399,-0.0384 v -10.55827 h 3.54553 v 14.22327 h -5.45701 l -4.82513,-10.89273 h -0.0399 v 10.89276 h -3.54552 V 154.2432"/>
      <path inkscape:connector-curvature="0" id="path1397" style="fill:#000000;fill-opacity:1;fill-rule:nonzero;stroke:none;stroke-width:1.32741654" d="m 180.34101,168.46636 5.61362,-14.22325 h 4.80658 l 5.61367,14.22325 h -4.45082 l -0.94649,-2.77695 h -5.77158 l -0.92522,2.77695 z m 9.67021,-5.53531 -1.8106,-5.90967 h -0.0597 l -1.93007,5.90967 h 3.80043"/>
      <path inkscape:connector-curvature="0" id="path1399" style="fill:#000000;fill-opacity:1;fill-rule:nonzero;stroke:none;stroke-width:1.32741654" d="m 197.33723,168.46636 v -14.22325 h 6.24287 l 2.32429,9.63304 h 0.0384 l 2.24734,-9.63304 h 6.126 v 14.22325 h -3.44861 V 156.5674 l -0.0399,-0.0384 -3.32786,11.93746 h -3.54689 l -3.13005,-12.03701 -0.0399,0.041 v 11.99586 h -3.44601"/>
      <path inkscape:connector-curvature="0" id="path1401" style="fill:#000000;fill-opacity:1;fill-rule:nonzero;stroke:none;stroke-width:1.32741654" d="m 216.9591,154.24311 h 3.94111 v 14.22325 h -3.94111 z"/>
      <path inkscape:connector-curvature="0" id="path1403" style="fill:#000000;fill-opacity:1;fill-rule:nonzero;stroke:none;stroke-width:1.32741654" d="m 243.13708,168.17302 h 4.20526 c 2.08141,0 3.46855,1.12032 3.46855,2.59641 0,1.36326 -1.05395,2.25928 -2.35086,2.37208 v 0.0451 c 1.99381,0.67169 2.28185,2.05752 2.30706,3.93848 h -1.87961 c -0.0677,-2.26194 -0.56016,-3.24289 -2.5513,-3.24289 h -1.54378 v 3.24289 h -1.65532 z m 1.65532,4.27558 h 1.96724 c 1.54378,0 2.17164,-0.53758 2.17164,-1.54642 0,-0.75927 -0.47125,-1.29555 -1.90219,-1.29555 h -2.23669 z m 1.79069,-7.38704 c 4.25038,0 7.69634,3.42471 7.69634,7.70033 0,4.27426 -3.44596,7.69769 -7.69634,7.69769 -4.2544,0 -7.69905,-3.42343 -7.69905,-7.69769 0,-4.27562 3.44465,-7.70033 7.69905,-7.70033 z m 0,14.56838 c 3.77913,0 6.86805,-3.065 6.86805,-6.86805 0,-3.80569 -3.08892,-6.87204 -6.86805,-6.87204 -3.78448,0 -6.87203,3.06635 -6.87203,6.87204 0,3.80305 3.08755,6.86805 6.87203,6.86805"/>
    </g>
  </g>
</svg>