<?xml version="1.0" encoding="UTF-8" standalone="no"?>
<!-- Created with Inkscape (http://www.inkscape.org/) -->

<svg
   xmlns:svg="http://www.w3.org/2000/svg"
   xmlns="http://www.w3.org/2000/svg"
   version="1.1"
   width="354.07321"
   height="89.038544"
   id="svg2">
  <defs
     id="defs6" />
  <path
     d="m 0,0.01006 18.565281,89.01814 18.47007,-89.01814 -9.996685,0 L 18.565281,50.04111 9.99669,0.01006 0,0.01006 l 0,0 z"
     id="path2952"
     style="fill:#fe0016;fill-opacity:1;stroke:none" />
  <path
     d="m 41.129241,0.01006 9.99669,0 0,89.01814 -9.99669,0 0,-89.01814 0,0 z"
     id="path3726"
     style="fill:#fe0016;fill-opacity:1;stroke:none" />
  <path
     d="m 60.069121,0 0,89.03125 10,0 0,-46 13.90625,46 9.21875,0 -11.125,-42.09375 c 6.18089,-3.7085 8,-8.5625 8,-8.5625 l 0,-28.28125 C 85.975231,1.001525 78.912871,0 78.912871,0 l -18.84375,0 z m 10,9.0625 10,0 0,30.9375 -10,0 0,-30.9375 z"
     id="path3728"
     style="fill:#fe0016;fill-opacity:1;stroke:none" />
  <path
     d="m 93.207231,0.01006 29.894859,0 0,9.04463 -9.99669,0 0,79.97351 -9.99669,0 0,-79.97351 -9.901479,0 0,-9.04463 0,0 z"
     id="path3733"
     style="fill:#fe0016;fill-opacity:1;stroke:none" />
  <path
     d="m 178.41287,0 -19.3125,88.9375 0,0.0937 9.90625,0 2.09375,-12 13.96875,0 2,12 10,0 L 178.41287,-5e-5 z m 0,38.375 4.5625,30.65625 -9.875,0 5.3125,-30.65625 z"
     id="path3735"
     style="fill:#fe0016;fill-opacity:1;stroke:none" />
  <path
     d="m 201.07627,0.01006 9.99669,0 0,79.97352 14.94743,0 0,9.04462 -24.94412,0 0,-89.01814 0,0 z"
     id="path2882"
     style="fill:#fe0016;fill-opacity:1;stroke:none" />
  <path
     d="m 307.99325,0.01006 9.13983,0 9.33024,38.36825 8.47339,-38.36825 10.09189,0 -13.99536,52.36362 0,36.65452 -9.99669,0 0,-36.65452 -13.0433,-52.36362 0,0 z"
     id="path3660"
     style="fill:#fe0016;fill-opacity:1;stroke:none" />
  <path
     d="m 290.05385,0.01006 c -11.36341,0 -15.01598,10.08369 -15.01598,10.08369 0.0952,0.142818 0,66.93962 0,68.84375 1.50738,10.82145 15.01598,10.0907 15.01598,10.0907 l 0,0 c 14.98799,0 14.98402,-10.0907 14.98402,-10.0907 l 0,-68.84375 C 301.16269,-0.489701 290.05385,0.01006 290.05385,0.01006 l 0,0 z m -5.01598,10.08369 10,0 0,69.875 -10,0 0,-69.875 z"
     id="path3662"
     style="fill:#fe0016;fill-opacity:1;stroke:none" />
  <path
     d="m 127.00556,0.01006 10.0919,0 0,78.92625 10.09189,0 0,-78.92625 9.90149,0 0,78.92625 c 0,0 -3.23703,10.09189 -14.56661,10.09189 -11.32958,0 -15.51867,-10.09189 -15.51867,-10.09189 l 0,-78.92625 0,0 z"
     id="path3667"
     style="fill:#fe0016;fill-opacity:1;stroke:none" />
  <path
     d="m 237.06912,0 0,89.03125 20.09375,0 c 9.32664,-2.42777 9.90625,-9.0625 9.90625,-9.0625 0,0 -0.0147,-23.7805 -0.0147,-29.92764 -0.7003,-3.8802 -3.89155,-4.00986 -3.89155,-4.00986 0,0 -0.0119,-1.08369 0,-1.9375 C 266.68915,43.82446 267.06912,40 267.06912,40 c 0,0 -0.0147,-23.756642 0,-29.90625 C 265.54515,2.83095 257.16287,0 257.16287,0 l -20.09375,0 z m 10.03125,10.15625 10.0625,0 0,29.84375 -10.0625,0 0,-29.84375 z m -0.0312,38.875 10.09375,0 0,30.9375 -10.09375,0 0,-30.9375 z"
     id="path3669"
     style="fill:#fe0016;fill-opacity:1;stroke:none" />
  <path
     d="m 337.07885,79.98358 6.95008,0 0,1.03338 -2.95141,0 0,8.01124 -0.99967,0 0,-8.01124 -2.999,0 0,-1.03338 0,0 z"
     id="path3699"
     style="fill:#fe0016;fill-opacity:1;stroke:none" />
  <path
     d="m 345.0286,89.0282 0,-9.04462 0.99966,0 3.57025,8.06845 3.42744,-8.06845 1.04727,0 0,9.04462 -1.04727,0 0,-7.00142 -2.95524,7.00142 -1.00982,0 -3.03263,-7.00142 0,7.00142 -0.99966,0 0,0 z"
     id="path3713"
     style="fill:#fe0016;fill-opacity:1;stroke:none" />
</svg>
