<?xml version="1.0" encoding="UTF-8"?>
<!-- Generator: Adobe Illustrator 18.0.0, SVG Export Plug-In . SVG Version: 6.00 Build 0)  -->
<!DOCTYPE svg PUBLIC "-//W3C//DTD SVG 1.1//EN" "http://www.w3.org/Graphics/SVG/1.1/DTD/svg11.dtd">
<svg version="1.1" id="svg2" xmlns:svg="http://www.w3.org/2000/svg" xmlns:rdf="http://www.w3.org/1999/02/22-rdf-syntax-ns#" xmlns:cc="http://creativecommons.org/ns#" xmlns:dc="http://purl.org/dc/elements/1.1/" xmlns="http://www.w3.org/2000/svg" xmlns:xlink="http://www.w3.org/1999/xlink" x="0px" y="0px" viewBox="0.9 -0.2 1186.1 199" enable-background="new 0.9 -0.2 1186.1 199" xml:space="preserve">
<polyline points="1174.2,20.4 1174.2,27.6 1158.2,37.5 1174.2,37.5 1174.2,44.6 1151.3,44.6 1151.3,37.5 1167.3,27.5 1151.3,27.5   1151.3,20.4 1174.2,20.4 "/>
<polyline points="1171.9,83.1 1171.9,90 1168.7,90 1168.7,93.8 1166.5,93.8 1166.5,90 1151.3,90 1151.3,83.1 1166.5,83.1   1166.5,79.4 1168.7,79.4 1168.7,83.1 1171.9,83.1 "/>
<rect x="1151.3" y="48.5" width="15.2" height="6.9"/>
<rect x="1169.5" y="48.5" width="4.7" height="6.9"/>
<path d="M1167.6,169.5c0-5.6-3.8-10.1-8.6-10.1c-4.7,0-8.6,4.5-8.6,10.1c0,5.6,3.9,10.1,8.6,10.1  C1163.7,179.5,1167.6,175,1167.6,169.5 M1159,172.2c0,0-2.3,0-3.2,0c-2.4,0-3.4-1.4-3.4-2.8c0-1.4,1-2.8,3.4-2.8c0.9,0,3.3,0,3.3,0  c0,0,2.3,0,3.2,0c2.4,0,3.4,1.4,3.4,2.8c0,1.4-1,2.8-3.4,2.8C1161.3,172.2,1159.6,172.2,1159,172.2z"/>
<path d="M1159,150.4c0,0,1.9,0,2.7,0c2.4,0,3-1.6,3-2.7c0-1.1-0.6-2.7-3-2.7c-0.8,0-2.7,0-2.7,0s-1.9,0-2.7,0c-2.4,0-3,1.6-3,2.7  c0,1.1,0.6,2.7,3,2.7C1157.2,150.4,1159,150.4,1159,150.4 M1174.2,150.3v6.8h-22.9v-6.9c0,0,0.7,0,0.9,0c-1.7-2.6-1.7-5.6-0.6-8  c0.3-0.6,2.2-4.7,7.6-4.7c4,0,8.4,3.8,8,8.8c-0.2,1.6-0.8,2.8-1.4,3.9C1169.3,150.3,1174.2,150.3,1174.2,150.3z"/>
<path d="M1167.2,71.6c0.1,2.6-1.6,7.8-7.7,7.8c-1.1,0-8.3,0-8.3,0v-6.9c0,0,9.1,0,10,0c1.3,0,2.8-1.3,2.8-3.2c0-1.9-1.4-3.3-2.8-3.3  c-0.7,0-10,0-10,0v-6.9l15.2,0v6.9c0,0-1.2,0-1.6,0C1166.2,67.4,1167.2,69.3,1167.2,71.6"/>
<path d="M1167.2,127.7c0.1,2.6-1.6,7.8-7.7,7.8c-1.1,0-8.3,0-8.3,0v-6.9c0,0,9.1,0,10,0c1.3,0,2.8-1.3,2.8-3.1  c0-1.9-1.4-3.3-2.8-3.3c-0.7,0-10,0-10,0v-6.8h15.2v6.8c0,0-1.2,0-1.6,0C1166.2,123.5,1167.2,125.4,1167.2,127.7"/>
<path d="M1156.6,105.9c0,0-0.1,0-0.9,0c-2.8,0-3.4-1.8-3.4-2.9c0-1,0.6-2.9,3.4-2.9c0.8,0,3.1,0,3.1,0s0,13,0,13  c4.7,0,8.6-4.6,8.6-10.2c0-5.6-3.8-10.2-8.6-10.2c-4.8,0-8.6,4.6-8.6,10.2c0,4.7,2.6,8.6,6.2,9.8V105.9 M1161.2,100.2  c1.3,0,2.2,0,3,0.5c0.9,0.5,1.4,1.5,1.4,2.4c0,0.9-0.4,1.9-1.4,2.4c-0.8,0.4-1.7,0.4-3,0.4V100.2z"/>
<path d="M1170.8,180v0.5c0,0.5,0.2,0.8,0.6,0.8c0.4,0,0.6-0.3,0.6-0.9V180H1170.8 M1170.5,183.4c-1.6,0-2.9-1.3-2.9-2.9  s1.3-2.9,2.9-2.9c1.6,0,2.8,1.3,2.8,2.9S1172.1,183.4,1170.5,183.4z M1174,180.5c0-1.9-1.6-3.5-3.5-3.5c-2,0-3.5,1.6-3.5,3.5  c0,2,1.6,3.5,3.5,3.5C1172.4,184.1,1174,182.5,1174,180.5z M1172.5,180.6c0,1.1-0.4,1.7-1.1,1.7c-0.5,0-0.9-0.3-1.1-0.9l-1.7,0.9v-1  l1.6-0.7V180h-1.6v-0.9h3.9V180.6z"/>
<path d="M1144.3,174.4V25.1c0-10.2,8.3-18.4,18.4-18.4c10.1,0,18.4,8.3,18.4,18.4v149.3c0,10.2-8.3,18.5-18.4,18.5  C1152.5,192.9,1144.3,184.6,1144.3,174.4 M1187,174.4V25.1c0-13.4-10.9-24.3-24.3-24.3c-13.4,0-24.3,10.8-24.3,24.3v149.3  c0,13.5,10.9,24.3,24.3,24.3C1176.1,198.8,1187,187.9,1187,174.4z"/>
<path d="M215.7,100.6L232.1,64l7.2,36.6H215.7 M447.8,4.9l-44.5,103.5L383.6,4.9h-38.3l-54.5,152.5L265.3,4.9h-47.8l-72.4,164.4  l10.8-68.7H84l-5.7,35.4h30.2l-3.5,18.9c-17.2,7.1-46.4,4.4-58.9-18c-7.9-14.2-15.3-45.8,18-74.9c27.2-23.7,74.2-28,101.3-15.6  c0,0,3.4-19.9,6-38.3c-52.1-18-92.6-3-119.7,13.8C14.6,44.6-3.2,79.5,1.7,126.9c5.5,54.9,76.6,89.6,136.9,54.6  c0.7-0.3,1-0.6,1.6-0.7l-5.8,12.8h40.5l25.5-56.5h44.8l9.8,56.5h66l33.6-105.5l27.6,105.5H408l44.3-116.8l17.5,117.5h38.7L494.4,4.9  H447.8z"/>
<polyline points="508.5,194.4 616.6,194.4 623.1,154 555.5,154 560.8,120.3 619.7,120.3 626.1,79.8 566.7,79.8 571.8,46.3   639.5,46.3 645.9,5.8 538.6,5.8 508.5,194.4 "/>
<polyline points="1043.8,65.1 1019.6,3.6 975.2,3.6 1021,103.1 1006.8,192.2 1045.7,192.2 1057.5,113.4 1127.4,3.6 1082,3.6   1043.8,65.1 "/>
<path d="M952.4,117.5c-10.4,31.2-35.6,49.4-56.1,40.1c-20.4-9.1-28.7-42-18.2-73.4c10.5-31.5,35.6-49.3,56-40.2  C954.6,53.2,962.9,86.1,952.4,117.5 M937.3,6.6c-43-9.9-87.7,24.3-99.8,76.4c-11.9,52.2,13.1,102.5,56,112.5  c43,9.8,87.6-24.4,99.8-76.5C1005.2,66.8,980.1,16.5,937.3,6.6z"/>
<path d="M761.3,82c-21.3,0-26.8,0-26.8,0l5.9-35c0,0,0.8,0,25.2,0C793,47,787.4,82,761.3,82 M756.6,158.2c-21.4,0-34.2,0-34.2,0  l6-37.6c0,0,8.1,0,32.4,0C791.7,120.6,790.8,158.2,756.6,158.2z M779.3,7.1c-20.9-0.3-72.6,0-72.6,0h0.4l-30,187.3  c0,0,62.1,0,87.3,0c36,0,88.5-52.9,40.6-96.1C854,47.4,805.4,7.7,779.3,7.1z"/>
</svg>