<?xml version="1.0" encoding="UTF-8" standalone="no"?>
<!-- Created with Inkscape (http://www.inkscape.org/) -->

<svg
   version="1.1"
   id="svg132"
   width="181.44"
   height="31.360001"
   viewBox="0 0 181.44 31.360001"
   sodipodi:docname="logo.svg"
   xml:space="preserve"
   inkscape:export-filename="logo.svg"
   inkscape:export-xdpi="96"
   inkscape:export-ydpi="96"
   inkscape:version="1.2 (dc2aedaf03, 2022-05-15)"
   xmlns:inkscape="http://www.inkscape.org/namespaces/inkscape"
   xmlns:sodipodi="http://sodipodi.sourceforge.net/DTD/sodipodi-0.dtd"
   xmlns:xlink="http://www.w3.org/1999/xlink"
   xmlns="http://www.w3.org/2000/svg"
   xmlns:svg="http://www.w3.org/2000/svg"><defs
     id="defs136"><linearGradient
       inkscape:collect="always"
       id="linearGradient1956"><stop
         style="stop-color:#ffaa00;stop-opacity:1;"
         offset="0"
         id="stop1952" /><stop
         style="stop-color:#9e6900;stop-opacity:1;"
         offset="1"
         id="stop1954" /></linearGradient><linearGradient
       inkscape:collect="always"
       xlink:href="#linearGradient1956"
       id="linearGradient1958"
       x1="-13.144538"
       y1="16.938623"
       x2="203.32031"
       y2="16.938623"
       gradientUnits="userSpaceOnUse" /><linearGradient
       inkscape:collect="always"
       xlink:href="#linearGradient1956"
       id="linearGradient2075"
       gradientUnits="userSpaceOnUse"
       x1="-13.144538"
       y1="16.938623"
       x2="203.32031"
       y2="16.938623" /><linearGradient
       inkscape:collect="always"
       xlink:href="#linearGradient1956"
       id="linearGradient2077"
       gradientUnits="userSpaceOnUse"
       x1="-13.144538"
       y1="16.938623"
       x2="203.32031"
       y2="16.938623" /><linearGradient
       inkscape:collect="always"
       xlink:href="#linearGradient1956"
       id="linearGradient2079"
       gradientUnits="userSpaceOnUse"
       x1="-13.144538"
       y1="16.938623"
       x2="203.32031"
       y2="16.938623" /><linearGradient
       inkscape:collect="always"
       xlink:href="#linearGradient1956"
       id="linearGradient2081"
       gradientUnits="userSpaceOnUse"
       x1="-13.144538"
       y1="16.938623"
       x2="203.32031"
       y2="16.938623" /><linearGradient
       inkscape:collect="always"
       xlink:href="#linearGradient1956"
       id="linearGradient2083"
       gradientUnits="userSpaceOnUse"
       x1="-13.144538"
       y1="16.938623"
       x2="203.32031"
       y2="16.938623" /><linearGradient
       inkscape:collect="always"
       xlink:href="#linearGradient1956"
       id="linearGradient2085"
       gradientUnits="userSpaceOnUse"
       x1="-13.144538"
       y1="16.938623"
       x2="203.32031"
       y2="16.938623" /><linearGradient
       inkscape:collect="always"
       xlink:href="#linearGradient1956"
       id="linearGradient2087"
       gradientUnits="userSpaceOnUse"
       x1="-13.144538"
       y1="16.938623"
       x2="203.32031"
       y2="16.938623" /><linearGradient
       inkscape:collect="always"
       xlink:href="#linearGradient1956"
       id="linearGradient2089"
       gradientUnits="userSpaceOnUse"
       x1="-13.144538"
       y1="16.938623"
       x2="203.32031"
       y2="16.938623" /><linearGradient
       inkscape:collect="always"
       xlink:href="#linearGradient1956"
       id="linearGradient2091"
       gradientUnits="userSpaceOnUse"
       x1="-13.144538"
       y1="16.938623"
       x2="203.32031"
       y2="16.938623" /><linearGradient
       inkscape:collect="always"
       xlink:href="#linearGradient1956"
       id="linearGradient2093"
       gradientUnits="userSpaceOnUse"
       x1="-13.144538"
       y1="16.938623"
       x2="203.32031"
       y2="16.938623" /></defs><sodipodi:namedview
     id="namedview134"
     pagecolor="#ffffff"
     bordercolor="#666666"
     borderopacity="1.0"
     inkscape:showpageshadow="2"
     inkscape:pageopacity="0.0"
     inkscape:pagecheckerboard="0"
     inkscape:deskcolor="#d1d1d1"
     showgrid="false"
     inkscape:zoom="6.6688712"
     inkscape:cx="82.472728"
     inkscape:cy="15.744794"
     inkscape:window-width="2560"
     inkscape:window-height="1017"
     inkscape:window-x="1072"
     inkscape:window-y="-8"
     inkscape:window-maximized="1"
     inkscape:current-layer="g138" /><g
     inkscape:groupmode="layer"
     inkscape:label="Image"
     id="g138"><g
       aria-label="Last Played"
       id="text1950"
       style="font-size:40px;line-height:1.25;font-family:'Star Trek TNG-Title';-inkscape-font-specification:'Star Trek TNG-Title';letter-spacing:0px;word-spacing:0px;fill:url(#linearGradient1958)"
       transform="matrix(0.83624774,0,0,0.83624774,11.480863,3.223589)"><path
         d="M 0.85936832,28.84292 H -13.144538 L -2.8125067,5.0343266 H 3.3007746 L -4.5703192,23.237452 h 7.8320313 z"
         id="path383"
         style="fill:url(#linearGradient2075)" /><path
         d="M 23.769525,28.84292 H 2.8124933 l 12.6757817,-15 h 5.253906 l -7.96875,9.394532 h 6.875 l 3.652344,-11.71875 q 0,-0.800782 -0.507813,-1.132813 -0.507812,-0.351562 -1.25,-0.351562 h -6.25 l 2.167969,-5.0000004 h 11.5625 q 0.703125,0 1.113281,0.46875 0.429688,0.4492187 0.429688,1.2109375 0,0.4882812 -0.15625,0.9375 z"
         id="path380"
         style="fill:url(#linearGradient2077)" /><path
         d="m 25.898431,28.84292 2.519531,-5.605468 h 8.183594 q 2.1875,0 3.242187,-0.585938 1.054688,-0.585937 1.054688,-2.402344 0,-1.347656 -0.722656,-1.855468 -0.722657,-0.527344 -2.421875,-1.191407 -1.679688,-0.664062 -2.539063,-1.679687 -0.859375,-1.015625 -0.917969,-3.203125 0,-1.992188 0.527344,-3.5937502 0.527344,-1.6015625 1.894531,-2.6367187 1.367188,-1.0546875 3.769532,-1.0546875 h 10.117187 l -2.148437,5.0000004 h -5.039063 q -1.582031,0 -2.207031,0.429687 -0.605469,0.429688 -0.605469,1.660156 0,1.015625 1.171875,1.445313 1.171875,0.410156 2.480469,0.800781 1.308594,0.390625 2.226562,1.464844 0.917969,1.074219 0.917969,3.398437 0,1.894532 -0.683594,3.632813 -0.683593,1.738281 -1.972656,3.085937 -1.289062,1.347657 -3.125,2.128907 -1.816406,0.761718 -3.925781,0.761718 z"
         id="path377"
         style="fill:url(#linearGradient2079)" /><path
         d="m 58.085931,28.84292 h -6.035156 l 8.085937,-18.808593 h -6.152344 l 2.148438,-5.0000004 h 18.359375 l -2.148438,5.0000004 h -6.09375 z"
         id="path374"
         style="fill:url(#linearGradient2081)" /><path
         d="m 78.3789,28.84292 6.523437,-15 h 9.277344 q 1.113281,0 1.5625,-0.996093 l 0.800781,-1.796875 q 0,-0.527344 -0.332031,-0.761719 Q 95.8789,10.034327 95.371087,10.034327 H 86.542962 L 88.6914,5.0343266 h 13.57422 q 0.82031,0 1.46484,0.546875 0.64453,0.546875 0.64453,1.3085937 0,0.2539063 -0.11718,0.546875 l -4.04297,9.0820317 q -0.507815,1.09375 -0.800784,1.503906 -0.292969,0.410156 -0.898438,0.625 -0.585937,0.195312 -1.855468,0.195312 h -7.851563 l -4.316406,10 z"
         id="path371"
         style="fill:url(#linearGradient2083)" /><path
         d="M 111.05468,28.84292 H 97.050775 L 107.38281,5.0343266 h 6.11328 l -7.8711,18.2031254 h 7.83203 z"
         id="path368"
         style="fill:url(#linearGradient2085)" /><path
         d="m 133.96484,28.84292 h -20.95703 l 12.67578,-15 h 5.2539 l -7.96875,9.394532 h 6.875 l 3.65235,-11.71875 q 0,-0.800782 -0.50782,-1.132813 -0.50781,-0.351562 -1.25,-0.351562 h -6.25 l 2.16797,-5.0000004 h 11.5625 q 0.70313,0 1.11328,0.46875 0.42969,0.4492187 0.42969,1.2109375 0,0.4882812 -0.15625,0.9375 z"
         id="path365"
         style="fill:url(#linearGradient2087)" /><path
         d="m 156.44531,11.049952 2.59765,-6.0156254 h 6.11328 l -4.9414,11.6015624 q -0.42969,0.996094 -1.9336,1.601563 -1.5039,0.605468 -3.39843,0.605468 h -1.71875 l -4.39454,10 h -6.875 l 4.31641,-10 h -1.79687 q -1.54297,0 -2.40235,-0.390625 -0.83984,-0.390625 -0.83984,-1.40625 0,-0.683593 0.39062,-1.601562 l 4.53125,-10.4101564 h 6.11328 l -2.63671,6.0937504 q -0.52735,1.054687 -0.52735,1.875 0,0.839843 0.83985,0.839843 0.52734,-0.01953 1.09375,-0.01953 0.5664,-0.01953 2.38281,-0.01953 0.89844,0 1.75781,-0.78125 0.87891,-0.800781 1.32813,-1.972656 z"
         id="path362"
         style="fill:url(#linearGradient2089)" /><path
         d="m 173.16406,28.84292 h -15.6836 L 167.77343,5.0343266 h 15.66406 l -2.14843,5.0000004 h -9.57032 l -1.99218,4.609375 h 9.60937 l -2.16797,5 h -9.60937 l -1.54297,3.59375 h 9.58984 z"
         id="path359"
         style="fill:url(#linearGradient2091)" /><path
         d="M 175.91796,28.84292 186.24999,5.0343266 h 15.625 q 0.64453,0 1.03516,0.46875 0.41016,0.4492187 0.41016,1.2109375 0,0.7226562 -0.35157,1.6015625 l -7.48047,17.3242184 q -0.58593,1.40625 -1.83593,2.304688 -1.23047,0.898437 -3.08594,0.898437 z m 16.5625,-18.808593 h -2.32422 l -5.66406,13.203125 h 4.27734 q 0.97657,0 1.52344,-0.507813 0.56641,-0.527344 1.03516,-1.601562 l 3.78906,-8.808594 q 0.25391,-0.507813 0.25391,-0.917969 0,-1.367187 -2.89063,-1.367187 z"
         id="path356"
         style="fill:url(#linearGradient2093)" /></g></g></svg>
