<?xml version="1.0" encoding="utf-8"?>
<!-- Generator: Adobe Illustrator 13.0.2, SVG Export Plug-In . SVG Version: 6.00 Build 14948)  -->
<!DOCTYPE svg PUBLIC "-//W3C//DTD SVG 1.1 Tiny//EN" "http://www.w3.org/Graphics/SVG/1.1/DTD/svg11-tiny.dtd">
<svg version="1.1" baseProfile="tiny" id="Layer_1" xmlns="http://www.w3.org/2000/svg" xmlns:xlink="http://www.w3.org/1999/xlink"
	 x="0px" y="0px" width="896.22px" height="257.47px" viewBox="0 0 896.22 257.47" xml:space="preserve">
<g>
	<path fill="#E32322" d="M236.071,107.643h-73.268v40.956h73.268c5.78,0,10.467,4.688,10.467,10.469s-4.687,10.467-10.467,10.467
		h-73.268v40.957h73.268c28.4,0,51.424-23.025,51.424-51.424C287.495,130.667,264.471,107.643,236.071,107.643z"/>
	<path fill="#1A171B" d="M82.254,148.598h73.267v-40.956H82.254c-5.781,0-10.468-4.686-10.468-10.467s4.687-10.467,10.468-10.467
		h73.267V45.752H82.254c-28.4,0-51.424,23.024-51.424,51.424C30.831,125.576,53.854,148.598,82.254,148.598z"/>
</g>
<g>
	<polygon fill="#1A171B" points="340.046,204.432 355.073,204.432 358.292,207.649 355.565,210.375 338.235,210.375 335.789,207.93 
			"/>
	<polygon fill="#1A171B" points="368.801,161.647 370.622,164.299 367.588,180.758 364.098,183.641 361.33,180.872 365.008,164.452 
			"/>
	<polygon fill="#1A171B" points="338.937,184.209 341.497,187.338 338.481,202.868 334.272,206.338 332.338,203.665 
		335.353,187.452 	"/>
	<polygon fill="#1A171B" points="342.937,161.114 345.896,164.149 342.787,180.227 339.487,183.528 336.718,179.999 
		339.751,163.922 	"/>
	<polygon fill="#1A171B" points="344.985,160.354 347.413,163.391 363.947,163.391 367.475,159.862 364.25,157.778 348.171,157.778 
			"/>
	<polygon fill="#1A171B" points="363.795,184.551 366.298,187.129 363.265,203.665 359.927,206.393 357.197,203.665 
		360.534,186.903 	"/>
</g>
<g>
	<polygon fill="#1A171B" points="787.236,204.346 802.266,204.346 805.482,207.61 802.755,210.375 785.426,210.375 782.978,207.895 
			"/>
	<polygon fill="#1A171B" points="815.992,160.944 817.811,163.637 814.779,180.333 811.288,183.254 808.52,180.448 812.198,163.79 	
		"/>
	<polygon fill="#1A171B" points="786.126,183.833 788.686,187.006 785.672,202.758 781.462,206.28 779.529,203.567 782.543,187.122 
			"/>
	<polygon fill="#1A171B" points="790.127,160.405 793.083,163.483 789.978,179.793 786.678,183.141 783.909,179.563 
		786.941,163.252 	"/>
	<polygon fill="#1A171B" points="792.173,159.635 794.603,162.711 811.138,162.711 814.666,159.135 811.441,157.022 795.36,157.022 
			"/>
	<polygon fill="#1A171B" points="810.986,184.18 813.49,186.797 810.456,203.567 807.118,206.338 804.387,203.567 807.724,186.565 	
		"/>
</g>
<g>
	<polygon fill="#1A171B" points="305.46,204.432 320.487,204.432 323.706,207.649 320.98,210.375 303.65,210.375 301.203,207.93 	
		"/>
	<polygon fill="#1A171B" points="304.351,184.209 306.91,187.338 303.896,202.868 299.687,206.338 297.752,203.665 300.767,187.452 
			"/>
	<polygon fill="#1A171B" points="308.352,161.114 311.31,164.149 308.2,180.227 304.901,183.528 302.132,179.999 305.166,163.922 	
		"/>
	<polygon fill="#1A171B" points="310.399,160.354 312.827,163.391 329.361,163.391 332.888,159.862 329.665,157.778 
		313.585,157.778 	"/>
</g>
<g>
	<polygon fill="#1A171B" points="410.668,161.647 412.489,164.299 409.456,180.758 405.965,183.641 403.197,180.872 
		406.875,164.452 	"/>
	<polygon fill="#1A171B" points="384.805,161.114 387.763,164.149 384.654,180.227 381.354,183.528 378.585,179.999 
		381.619,163.922 	"/>
	<polygon fill="#1A171B" points="386.853,160.354 389.28,163.391 405.814,163.391 409.342,159.862 406.118,157.778 390.038,157.778 
			"/>
	<polygon fill="#1A171B" points="393.375,165.667 399.595,165.667 397.168,177.649 393.603,180.303 391.1,177.192 	"/>
	<polygon fill="#1A171B" points="380.633,184.627 382.833,187.508 378.737,207.758 375.779,210.717 372.821,207.758 
		376.842,187.508 	"/>
	<polygon fill="#1A171B" points="404.98,185.083 407.369,187.471 403.842,207.608 400.05,210.491 397.775,208.215 401.795,187.584 	
		"/>
</g>
<g>
	<polygon fill="#1A171B" points="452.536,161.647 454.356,164.299 451.324,180.758 447.832,183.641 445.064,180.872 
		448.742,164.452 	"/>
	<polygon fill="#1A171B" points="426.67,161.114 429.628,164.149 426.521,180.227 423.222,183.528 420.453,179.999 423.486,163.922 
			"/>
	<polygon fill="#1A171B" points="428.718,160.354 431.148,163.391 447.683,163.391 451.208,159.862 447.985,157.778 
		431.905,157.778 	"/>
	<polygon fill="#1A171B" points="422.501,184.627 424.701,187.508 420.606,207.758 417.647,210.717 414.689,207.758 
		418.708,187.508 	"/>
	<polygon fill="#1A171B" points="423.714,184.401 427.089,181.024 443.055,181.024 445.253,184.247 441.159,187.206 
		426.141,187.206 	"/>
</g>
<g>
	<polygon fill="#1A171B" points="462.007,204.432 477.034,204.432 480.252,207.649 477.525,210.375 460.197,210.375 457.75,207.93 	
		"/>
	<polygon fill="#1A171B" points="460.898,184.209 463.458,187.338 460.442,202.868 456.233,206.338 454.298,203.665 
		457.314,187.452 	"/>
	<polygon fill="#1A171B" points="485.756,184.551 488.259,187.129 485.226,203.665 481.888,206.393 479.158,203.665 
		482.496,186.903 	"/>
	<polygon fill="#1A171B" points="465.732,157.625 468.084,159.977 464.444,180.756 461.03,183.26 458.754,180.985 462.245,160.506 	
		"/>
	<polygon fill="#1A171B" points="490.308,157.702 492.884,160.278 488.943,180.456 485.794,183.6 482.99,180.797 486.894,160.506 	
		"/>
</g>
<g>
	<polygon fill="#1A171B" points="500.622,157.323 525.802,157.323 528.001,160.432 525.157,163.276 500.242,163.276 
		497.341,160.374 	"/>
	<polygon fill="#1A171B" points="508.812,165.209 514.5,165.209 511.697,180.303 508.207,183.108 505.476,180.377 	"/>
	<polygon fill="#1A171B" points="508.055,184.323 510.217,186.485 506.385,207.153 502.667,209.958 500.356,207.645 
		504.489,186.827 	"/>
</g>
<g>
	<polygon fill="#1A171B" points="534.071,157.399 556.902,157.399 559.215,159.713 555.802,163.125 539.077,163.125 	"/>
	<polygon fill="#1A171B" points="532.629,158.838 537.561,163.77 534.83,178.864 530.735,181.897 528.308,179.471 	"/>
	<polygon fill="#1A171B" points="535.436,180.836 552.501,180.836 555.004,183.338 551.591,186.752 534.83,186.752 532.214,184.135 
			"/>
	<polygon fill="#1A171B" points="530.43,185.083 532.594,187.245 530.051,203.512 523.302,208.444 527.094,187.889 	"/>
	<polygon fill="#1A171B" points="524.742,209.961 531.189,204.499 547.876,204.499 550.53,207.153 547.723,209.961 	"/>
</g>
<g>
	<polygon fill="#1A171B" points="569.566,157.625 591.183,157.625 594.37,160.434 590.766,164.038 573.89,163.77 	"/>
	<polygon fill="#1A171B" points="591.791,164.606 595.506,162.026 597.403,164.075 594.522,179.776 591.185,183.112 
		588.302,179.926 	"/>
	<polygon fill="#1A171B" points="570.781,181.292 587.165,181.292 589.06,183.946 585.762,187.245 569.719,187.245 567.16,184.686 	
		"/>
	<polygon fill="#1A171B" points="566.458,182.881 569.718,179.622 572.677,164.301 567.708,159.333 563.803,179.622 	"/>
	<polygon fill="#1A171B" points="565.925,185.54 568.201,187.661 564.487,208.293 561.224,210.641 558.495,207.913 561.985,188.649 
			"/>
	<polygon fill="#1A171B" points="570.099,188.725 574.118,188.725 589.667,206.473 589.06,210.34 584.965,210.34 569.643,192.516 	
		"/>
</g>
<polygon fill="#1A171B" points="621.142,156.944 643.745,156.944 645.793,159.219 641.469,162.708 625.919,162.708 "/>
<polygon fill="#1A171B" points="647.004,160.735 648.902,162.784 646.094,179.622 642.946,182.77 640.292,180.114 642.91,164.225 
	"/>
<polygon fill="#1A171B" points="642.607,183.567 645.148,186.108 642.454,202.983 639.498,205.94 636.236,202.831 639.041,186.295 
	"/>
<polygon fill="#1A171B" points="635.21,203.856 637.675,207.231 635.095,209.807 612.191,209.807 619.322,203.856 "/>
<polygon fill="#1A171B" points="619.549,158.309 624.177,163.618 621.37,180.303 617.88,182.504 615.186,179.811 "/>
<polygon fill="#1A171B" points="617.805,183.717 620.307,186.219 617.424,202.831 610.675,208.139 614.165,186.6 "/>
<polygon fill="#1A171B" points="663.993,157.625 666.422,159.977 663.008,180.76 659.595,183.186 656.79,180.379 660.733,159.827 
	"/>
<polygon fill="#1A171B" points="659.519,184.401 661.757,186.637 658.306,207.913 654.969,210.188 652.39,207.61 655.877,187.055 
	"/>
<polygon fill="#1A171B" points="680.832,157.551 683.563,160.282 680.53,180.534 676.889,183.567 673.968,180.645 677.267,160.737 
	"/>
<polygon fill="#1A171B" points="676.736,184.401 679.085,186.752 676.207,207.305 672.944,210.569 670.023,207.647 673.02,187.055 
	"/>
<polygon fill="#1A171B" points="679.239,197.067 695.167,183.793 699.188,183.793 699.188,188.118 678.406,205.79 "/>
<polygon fill="#1A171B" points="698.883,180.379 701.349,182.846 704.876,179.319 708.061,159.75 705.37,157.057 702.259,160.168 
	"/>
<g>
	<polygon fill="#1A171B" points="716.708,159.75 719.97,156.868 722.549,159.448 719.743,179.776 716.406,183.112 713.599,180.002 	
		"/>
	<polygon fill="#1A171B" points="716.102,184.02 718.377,186.295 715.342,207.231 712.157,209.885 709.351,207.079 712.308,187.055 
			"/>
</g>
<g>
	<polygon fill="#1A171B" points="770.71,159.75 773.971,156.868 776.55,159.448 773.744,179.776 770.407,183.112 767.6,180.002 	"/>
	<polygon fill="#1A171B" points="770.103,184.02 772.378,186.295 769.345,207.231 766.159,209.885 763.352,207.079 766.309,187.055 
			"/>
</g>
<polygon fill="#1A171B" points="736.351,159.524 739.386,157.247 756.602,157.247 759.179,159.827 755.959,163.049 739.461,163.049 
	"/>
<polygon fill="#1A171B" points="732.105,183.719 735.29,180.458 750.99,180.458 753.757,183.225 750.532,186.45 735.821,186.45 "/>
<polygon fill="#1A171B" points="730.361,181.973 734.608,178.713 737.261,163.696 734.417,160.85 731.84,163.428 728.387,179.168 
	"/>
<polygon fill="#1A171B" points="751.293,187.584 754.782,184.78 757.017,187.018 754.327,203.362 751.293,206.393 748.259,202.907 
	"/>
<polygon fill="#1A171B" points="746.59,204.045 749.169,207.458 745.984,209.883 728.615,209.883 725.884,207.153 729.906,204.045 
	"/>
<polygon fill="#1A171B" points="828.279,159.448 830.932,156.793 833.74,159.674 830.25,180.077 827.14,183.186 824.143,180.19 "/>
<polygon fill="#1A171B" points="826.533,184.325 828.96,186.827 825.471,207.381 821.908,210.038 819.29,207.418 823.045,186.979 
	"/>
<polygon fill="#1A171B" points="835.483,159.977 838.746,159.977 847.012,174.237 846.027,179.698 843.218,179.698 834.497,164.301 
	"/>
<polygon fill="#1A171B" points="854.52,156.413 857.099,158.993 853.99,178.864 850.273,182.581 847.353,179.661 851.26,158.993 "/>
<polygon fill="#1A171B" points="849.968,183.489 852.167,185.688 849.06,206.624 845.419,209.43 843.03,207.04 846.785,185.614 "/>
<g>
	<path fill="#1A171B" d="M310.885,116.107c0,15.018,11.058,20.889,24.708,20.889c15.018,0,20.615-7.375,20.615-14.747
		c0-7.508-4.096-10.511-8.055-12.014c-6.826-2.593-15.699-4.367-29.079-8.055c-16.655-4.504-21.569-14.605-21.569-24.709
		c0-19.521,18.02-28.668,35.631-28.668c20.34,0,37.405,10.786,37.405,31.125h-17.065c-0.819-12.559-9.283-17.2-21.023-17.2
		c-7.918,0-17.884,2.866-17.884,12.696c0,6.825,4.642,10.648,11.604,12.559c1.502,0.41,23.073,6.008,28.124,7.51
		c12.832,3.822,18.976,14.742,18.976,24.846c0,21.842-19.386,30.579-38.771,30.579c-22.252,0-40.274-10.648-40.682-34.811H310.885z"
		/>
	<path fill="#1A171B" d="M427.791,101.637c-1.202-8.602-7.353-13.242-15.776-13.242c-7.89,0-18.989,4.232-18.989,25.666
		c0,11.739,5.081,24.165,18.319,24.165c8.828,0,14.978-6.008,16.446-16.111h15.245c-2.808,18.294-13.906,28.394-31.691,28.394
		c-21.662,0-33.563-15.697-33.563-36.448c0-21.298,11.365-37.952,34.099-37.952c16.046,0,29.684,8.19,31.155,25.528H427.791z"/>
	<path fill="#1A171B" d="M446.862,51.125h15.563v36.176h0.274c3.822-6.416,11.876-11.193,21.158-11.193
		c15.293,0,24.983,8.19,24.983,24.026v48.463h-15.563V104.23c-0.272-11.059-4.643-15.836-13.789-15.836
		c-10.374,0-17.064,8.191-17.064,18.566v41.637h-15.563V51.125z"/>
	<path fill="#1A171B" d="M514.986,78.02h14.744v10.375l0.271,0.272c4.644-7.781,12.697-12.559,21.981-12.559
		c15.288,0,24.982,8.19,24.982,24.026v48.463h-15.563V104.23c-0.274-11.059-4.642-15.836-13.789-15.836
		c-10.374,0-17.063,8.191-17.063,18.566v41.637h-15.563V78.02z"/>
	<path fill="#1A171B" d="M597.08,117.336c0,11.059,6.007,20.889,18.974,20.889c9.013,0,14.474-3.961,17.203-11.743H648
		c-3.412,15.426-16.517,24.026-31.946,24.026c-22.115,0-34.536-15.426-34.536-37.131c0-20.067,13.104-37.269,34.128-37.269
		c22.253,0,35.905,20.067,33.313,41.228H597.08z M633.393,107.097c-0.545-9.828-7.237-18.702-17.748-18.702
		c-10.784,0-18.157,8.191-18.565,18.702H633.393z"/>
	<path fill="#1A171B" d="M654.647,51.125h15.563v14.744h-15.563V51.125z M654.647,78.02h15.563v70.579h-15.563V78.02z"/>
	<path fill="#1A171B" d="M744.695,148.598h-14.279v-9.557h-0.267c-3.965,8.053-12.561,11.467-21.155,11.467
		c-21.555,0-32.001-16.518-32.001-37.678c0-25.528,14.678-36.722,29.62-36.722c8.594,0,18.115,3.276,22.743,11.058h0.265V51.125
		h15.074V148.598z M710.977,138.225c13.486,0,19.172-12.698,19.172-24.985c0-15.563-7.272-24.846-18.908-24.846
		c-14.149,0-19.173,12.97-19.173,25.666C692.068,126.21,697.886,138.225,710.977,138.225z"/>
	<path fill="#1A171B" d="M765.867,117.336c0,11.059,6.007,20.889,18.976,20.889c9.01,0,14.472-3.961,17.201-11.743h14.744
		c-3.413,15.426-16.519,24.026-31.945,24.026c-22.117,0-34.538-15.426-34.538-37.131c0-20.067,13.105-37.269,34.128-37.269
		c22.254,0,35.905,20.067,33.312,41.228H765.867z M802.181,107.097c-0.547-9.828-7.237-18.702-17.749-18.702
		c-10.784,0-18.156,8.191-18.565,18.702H802.181z"/>
	<path fill="#1A171B" d="M823.025,78.02h14.607v13.65h0.274c1.773-7.507,11.057-15.562,20.613-15.562
		c3.55,0,4.504,0.272,5.869,0.409v15.018c-2.184-0.273-4.504-0.684-6.688-0.684c-10.648,0-19.112,8.602-19.112,24.164v33.583
		h-15.563V78.02z"/>
</g>
</svg>
