<?xml version="1.0" encoding="UTF-8"?>
<!-- Generator: Adobe Illustrator 22.0.0, SVG Export Plug-In . SVG Version: 6.00 Build 0)  -->
<svg version="1.1" id="Layer_1" xmlns="http://www.w3.org/2000/svg" xmlns:xlink="http://www.w3.org/1999/xlink" x="0px" y="0px" viewBox="0 0 446.3 113.8" style="enable-background:new 0 0 446.3 113.8;" xml:space="preserve">
<style type="text/css">
	.st0{fill:#D73648;}
</style>
<path d="M168.4,33.7h21.6l-2.5,28.8h0.1l16.9-28.8h22L210,87.2h-14.4l11.8-36.9h-0.1l-20.6,36.9h-11.5l2.2-36.9h-0.1l-11,36.9H152  L168.4,33.7z"/>
<path d="M231.9,33.7h15.5L231,87.2h-15.5L231.9,33.7z"/>
<path d="M253.1,33.7h23.2c9.2,0,20.2,6.1,17.4,23.6c-2.8,17.8-14.6,29.9-32.1,29.9h-24.9L253.1,33.7z M256.5,73.5h7.5  c10.1,0,13.7-11.2,14.2-16.1c0.9-8-2.8-10-8-10h-5.7L256.5,73.5z"/>
<path d="M337.7,87.2h-14.9l3.1-27.7h-0.1l-14,27.7h-14.9l2.2-53.5h15.2l-3.4,31.1h0.1l15.5-31.1h13.5l-3.4,31.1h0.1L352,33.7h15.8  L337.7,87.2z"/>
<path d="M374.8,33.7H390l6.1,53.5h-15.2l-0.6-7.6h-16.4l-4.1,7.6H344L374.8,33.7z M369.9,68.1h9.7l-1.2-16h-0.1L369.9,68.1z"/>
<path d="M403.5,67.6l-8-33.9H411l3.2,19.9l13.9-19.9h18.2L419,67.4l-5.4,19.8h-15.5L403.5,67.6z"/>
<path d="M417.9,83.7c0-1.6,1.3-2.8,2.8-2.8c1.5,0,2.8,1.2,2.8,2.8c0,1.6-1.3,2.8-2.8,2.8C419.2,86.5,417.9,85.3,417.9,83.7z   M420.7,86.1c1.3,0,2.2-1,2.2-2.3c0-1.3-1-2.3-2.2-2.3c-1.3,0-2.3,1-2.3,2.3C418.5,85.1,419.5,86.1,420.7,86.1z M420.2,85.3h-0.5  v-3.2h1.2c0.8,0,1.1,0.3,1.1,0.9c0,0.6-0.4,0.8-0.8,0.9l0.9,1.4h-0.5l-0.8-1.4h-0.6V85.3z M420.7,83.6c0.4,0,0.8,0,0.8-0.5  c0-0.4-0.4-0.5-0.7-0.5h-0.7v1H420.7z"/>
<path class="st0" d="M26.1,90.5C8.5,84.4-3.7,72.9,1,58.9c6.7-20.1,46.2-35.7,88.3-34.7c5.9,0.1,9.8,0.4,15.2,1.1L125.9,0l-8.3,27.6  c25,6.1,40.7,19.5,35.5,34.7c-6.8,20.1-44.4,32.8-72.2,34.3l13.9-48l-55,65.1L54,61.1L26.1,90.5z M139.1,58.7  c3.3-11.1-5.7-20.6-22.7-26.4L102.6,79C119.3,76,136.1,68.9,139.1,58.7z M101.9,28.2c-4.8-0.7-9-1-14.4-1.2  c-33.9-0.8-65.9,11.8-71.3,28.1c-3.2,9.7,2,15.9,12.7,20.1l47.5-44l-9.6,38.4L101.9,28.2"/>
<path class="st0" d="M102,98.1c0-1.6,1.3-2.8,2.8-2.8c1.5,0,2.8,1.2,2.8,2.8c0,1.6-1.3,2.8-2.8,2.8C103.3,100.8,102,99.7,102,98.1z   M104.8,100.4c1.3,0,2.2-1,2.2-2.3c0-1.3-1-2.3-2.2-2.3c-1.3,0-2.3,1-2.3,2.3C102.6,99.4,103.5,100.4,104.8,100.4z M104.2,99.7h-0.5  v-3.2h1.2c0.8,0,1.1,0.3,1.1,0.9c0,0.6-0.4,0.8-0.8,0.9l0.9,1.4h-0.5l-0.8-1.4h-0.6V99.7z M104.8,97.9c0.4,0,0.8,0,0.8-0.5  c0-0.4-0.4-0.5-0.7-0.5h-0.7v1H104.8z"/>
</svg>