<?xml version="1.0" encoding="UTF-8" standalone="no"?>
<!-- Created with Inkscape (http://www.inkscape.org/) -->

<svg
   version="1.1"
   id="svg132"
   width="181.44"
   height="31.360001"
   viewBox="0 0 181.44 31.360001"
   sodipodi:docname="Favorite.png"
   xml:space="preserve"
   inkscape:export-filename="Favorite.svg"
   inkscape:export-xdpi="96"
   inkscape:export-ydpi="96"
   xmlns:inkscape="http://www.inkscape.org/namespaces/inkscape"
   xmlns:sodipodi="http://sodipodi.sourceforge.net/DTD/sodipodi-0.dtd"
   xmlns:xlink="http://www.w3.org/1999/xlink"
   xmlns="http://www.w3.org/2000/svg"
   xmlns:svg="http://www.w3.org/2000/svg"><defs
     id="defs136"><linearGradient
       inkscape:collect="always"
       id="linearGradient1547"><stop
         style="stop-color:#ffaa00;stop-opacity:1;"
         offset="0"
         id="stop1543" /><stop
         style="stop-color:#af7500;stop-opacity:1;"
         offset="1"
         id="stop1545" /></linearGradient><linearGradient
       inkscape:collect="always"
       xlink:href="#linearGradient1547"
       id="linearGradient1612"
       gradientUnits="userSpaceOnUse"
       x1="0.91638815"
       y1="15.35771"
       x2="181.24435"
       y2="15.35771" /><linearGradient
       inkscape:collect="always"
       xlink:href="#linearGradient1547"
       id="linearGradient1614"
       gradientUnits="userSpaceOnUse"
       x1="0.91638815"
       y1="15.35771"
       x2="181.24435"
       y2="15.35771" /><linearGradient
       inkscape:collect="always"
       xlink:href="#linearGradient1547"
       id="linearGradient1616"
       gradientUnits="userSpaceOnUse"
       x1="0.91638815"
       y1="15.35771"
       x2="181.24435"
       y2="15.35771" /><linearGradient
       inkscape:collect="always"
       xlink:href="#linearGradient1547"
       id="linearGradient1618"
       gradientUnits="userSpaceOnUse"
       x1="0.91638815"
       y1="15.35771"
       x2="181.24435"
       y2="15.35771" /><linearGradient
       inkscape:collect="always"
       xlink:href="#linearGradient1547"
       id="linearGradient1620"
       gradientUnits="userSpaceOnUse"
       x1="0.91638815"
       y1="15.35771"
       x2="181.24435"
       y2="15.35771" /><linearGradient
       inkscape:collect="always"
       xlink:href="#linearGradient1547"
       id="linearGradient1622"
       gradientUnits="userSpaceOnUse"
       x1="0.91638815"
       y1="15.35771"
       x2="181.24435"
       y2="15.35771" /><linearGradient
       inkscape:collect="always"
       xlink:href="#linearGradient1547"
       id="linearGradient1624"
       gradientUnits="userSpaceOnUse"
       x1="0.91638815"
       y1="15.35771"
       x2="181.24435"
       y2="15.35771" /><linearGradient
       inkscape:collect="always"
       xlink:href="#linearGradient1547"
       id="linearGradient1626"
       gradientUnits="userSpaceOnUse"
       x1="0.91638815"
       y1="15.35771"
       x2="181.24435"
       y2="15.35771" /><linearGradient
       inkscape:collect="always"
       xlink:href="#linearGradient1547"
       id="linearGradient1628"
       gradientUnits="userSpaceOnUse"
       x1="0.91638815"
       y1="15.35771"
       x2="181.24435"
       y2="15.35771" /></defs><sodipodi:namedview
     id="namedview134"
     pagecolor="#ffffff"
     bordercolor="#666666"
     borderopacity="1.0"
     inkscape:showpageshadow="2"
     inkscape:pageopacity="0.0"
     inkscape:pagecheckerboard="0"
     inkscape:deskcolor="#d1d1d1"
     showgrid="false" /><g
     inkscape:groupmode="layer"
     inkscape:label="Image"
     id="g138"><path
       d="M 23.823844,8.2105034 H 9.3676826 L 11.611926,3.034591 H 26.047869 Z M 7.2649682,27.68083 H 0.91638815 L 7.6693363,12.153093 H 22.125498 l -2.244243,5.175912 h -8.148019 z"
       id="path1598"
       style="font-size:41.4073px;font-family:'Star Trek TNG-Title';-inkscape-font-specification:'Star Trek TNG-Title';letter-spacing:0px;word-spacing:0px;fill:url(#linearGradient1612);fill-opacity:1;stroke:none;stroke-width:1.03519" /><path
       d="M 39.675075,27.68083 H 17.980724 L 31.10247,12.153093 h 5.438752 l -8.24911,9.725054 h 7.116879 L 39.189833,9.7471023 q 0,-0.8289547 -0.525678,-1.1726676 Q 38.138476,8.2105034 37.370177,8.2105034 H 30.900286 L 33.14453,3.034591 h 11.969297 q 0.727863,0 1.152449,0.4852418 0.444805,0.4650233 0.444805,1.2535412 0,0.5054602 -0.161747,0.9704836 z"
       id="path1595"
       style="font-size:41.4073px;font-family:'Star Trek TNG-Title';-inkscape-font-specification:'Star Trek TNG-Title';letter-spacing:0px;word-spacing:0px;fill:url(#linearGradient1614);fill-opacity:1;stroke:none;stroke-width:1.03519" /><path
       d="M 51.361315,27.68083 H 43.698539 L 51.401752,3.034591 h 6.085741 L 53.302282,16.419177 64.563936,3.034591 h 7.581902 z"
       id="path1592"
       style="font-size:41.4073px;font-family:'Star Trek TNG-Title';-inkscape-font-specification:'Star Trek TNG-Title';letter-spacing:0px;word-spacing:0px;fill:url(#linearGradient1616);fill-opacity:1;stroke:none;stroke-width:1.03519" /><path
       d="M 78.23158,27.68083 H 65.675949 q -0.566115,0 -1.213104,-0.828955 -0.646989,-0.849173 -0.646989,-1.860093 0,-0.566116 0.262839,-1.152449 L 71.822345,5.9864785 Q 72.348024,4.6925004 73.419599,3.8635457 74.491175,3.034591 76.169303,3.034591 h 11.666021 q 0.707644,0 1.415289,0.3437129 0.727862,0.3234945 1.192886,0.8693915 0.465023,0.5256786 0.465023,1.1524493 0,0.3234945 -0.12131,0.6267706 L 82.942469,24.162827 Q 81.466526,27.68083 78.23158,27.68083 Z m -5.297222,-5.802683 h 2.689048 q 1.961185,0 3.012543,-2.405991 l 3.861716,-8.896099 q 0.161747,-0.38415 0.161747,-0.7885178 0,-0.6469891 -0.283058,-1.1120125 -0.283058,-0.4650233 -0.545897,-0.4650233 h -2.769922 q -1.880312,0 -2.850795,2.2846796 l -3.94259,9.037629 q -0.161747,0.384149 -0.161747,0.768299 0,0.586334 0.303276,1.091794 0.303276,0.485242 0.525679,0.485242 z"
       id="path1589"
       style="font-size:41.4073px;font-family:'Star Trek TNG-Title';-inkscape-font-specification:'Star Trek TNG-Title';letter-spacing:0px;word-spacing:0px;fill:url(#linearGradient1618);fill-opacity:1;stroke:none;stroke-width:1.03519" /><path
       d="M 90.888303,27.68083 H 84.600378 L 95.235261,3.034591 h 13.829389 q 0.7683,0 1.5366,0.7480811 0.78852,0.7278626 0.78852,1.6579094 0,0.4043681 -0.16175,0.7885179 l -2.91145,6.7529486 q -1.2131,2.769921 -4.42783,2.769921 0.70764,0 1.37485,0.687426 0.66721,0.687426 0.66721,1.597255 0,0.444804 -0.18197,0.828954 l -3.80106,8.815226 h -6.287923 l 3.477566,-8.067145 q 0.323495,-0.869391 0.323495,-1.374851 0,-0.869392 -0.748081,-0.869392 h -3.356256 z m 6.712511,-15.4873 h 3.275386 q 1.4355,0 1.73878,-0.667208 l 0.90983,-2.0622774 q 0.0809,-0.1617472 0.0809,-0.4245865 0,-0.8289547 -1.29398,-0.8289547 h -2.972103 z"
       id="path1586"
       style="font-size:41.4073px;font-family:'Star Trek TNG-Title';-inkscape-font-specification:'Star Trek TNG-Title';letter-spacing:0px;word-spacing:0px;fill:url(#linearGradient1620);fill-opacity:1;stroke:none;stroke-width:1.03519" /><path
       d="M 111.38977,27.68083 H 105.0614 L 115.73672,3.034591 h 6.32837 z"
       id="path1583"
       style="font-size:41.4073px;font-family:'Star Trek TNG-Title';-inkscape-font-specification:'Star Trek TNG-Title';letter-spacing:0px;word-spacing:0px;fill:url(#linearGradient1622);fill-opacity:1;stroke:none;stroke-width:1.03519" /><path
       d="m 127.11969,27.68083 h -6.24749 l 8.37042,-19.4703266 h -6.3688 l 2.22403,-5.1759124 h 19.0053 l -2.22403,5.1759124 h -6.30814 z"
       id="path1580"
       style="font-size:41.4073px;font-family:'Star Trek TNG-Title';-inkscape-font-specification:'Star Trek TNG-Title';letter-spacing:0px;word-spacing:0px;fill:url(#linearGradient1624);fill-opacity:1;stroke:none;stroke-width:1.03519" /><path
       d="m 152.55445,27.68083 h -16.23538 l 10.6551,-24.646239 h 16.21516 l -2.22402,5.1759124 h -9.90702 l -2.06228,4.7715446 h 9.94746 l -2.24425,5.175912 h -9.94745 l -1.59726,3.720187 h 9.92724 z"
       id="path1577"
       style="font-size:41.4073px;font-family:'Star Trek TNG-Title';-inkscape-font-specification:'Star Trek TNG-Title';letter-spacing:0px;word-spacing:0px;fill:url(#linearGradient1626);fill-opacity:1;stroke:none;stroke-width:1.03519" /><path
       d="m 155.66807,27.68083 2.60818,-5.802683 h 8.47151 q 2.26446,0 3.35626,-0.606552 1.09179,-0.606552 1.09179,-2.486864 0,-1.395071 -0.74808,-1.920749 -0.74808,-0.545897 -2.50708,-1.233323 -1.73879,-0.687426 -2.6284,-1.738783 -0.88961,-1.051357 -0.95026,-3.315819 0,-2.0622775 0.5459,-3.720187 0.54589,-1.6579094 1.96118,-2.729485 1.41529,-1.091794 3.90215,-1.091794 h 10.47314 l -2.22402,5.1759124 h -5.21635 q -1.63769,0 -2.28468,0.4448049 -0.62677,0.444805 -0.62677,1.7185647 0,1.051357 1.2131,1.496162 1.2131,0.424587 2.56774,0.828955 1.35463,0.404368 2.3049,1.51638 0.95026,1.112013 0.95026,3.518003 0,1.961186 -0.70764,3.760624 -0.70765,1.799439 -2.04206,3.194509 -1.33442,1.39507 -3.23495,2.203806 -1.88031,0.788518 -4.0639,0.788518 z"
       id="path1574"
       style="font-size:41.4073px;font-family:'Star Trek TNG-Title';-inkscape-font-specification:'Star Trek TNG-Title';letter-spacing:0px;word-spacing:0px;fill:url(#linearGradient1628);fill-opacity:1;stroke:none;stroke-width:1.03519" /></g></svg>
