<?xml version="1.0" encoding="UTF-8" standalone="no"?>
<!DOCTYPE svg PUBLIC "-//W3C//DTD SVG 1.0//EN" "http://www.w3.org/TR/2001/REC-SVG-20010904/DTD/svg10.dtd">
<!-- Created with Inkscape (http://www.inkscape.org/) -->
<svg xmlns:svg="http://www.w3.org/2000/svg" xmlns="http://www.w3.org/2000/svg" xmlns:xlink="http://www.w3.org/1999/xlink" version="1.0" width="800" height="280" id="svg2">
  <defs id="defs4">
    <linearGradient id="linearGradient4034">
      <stop id="stop4036" style="stop-color:#646464;stop-opacity:1" offset="0"/>
      <stop id="stop4038" style="stop-color:#000000;stop-opacity:0" offset="1"/>
    </linearGradient>
    <linearGradient id="linearGradient4022">
      <stop id="stop4024" style="stop-color:#646464;stop-opacity:1" offset="0"/>
      <stop id="stop4030" style="stop-color:#c8c8c8;stop-opacity:1" offset="0.29303831"/>
      <stop id="stop4032" style="stop-color:#646464;stop-opacity:1" offset="0.9733811"/>
      <stop id="stop4026" style="stop-color:#c8c8c8;stop-opacity:1" offset="1"/>
    </linearGradient>
    <radialGradient cx="317.61594" cy="303.7291" r="379.17358" fx="317.61594" fy="303.7291" id="radialGradient4040" xlink:href="#linearGradient4034" gradientUnits="userSpaceOnUse" gradientTransform="matrix(0.7171779,0.1265971,-2.3976809e-2,0.1358296,97.111293,222.26447)" spreadMethod="reflect"/>
    <radialGradient cx="317.61594" cy="303.7291" r="379.17358" fx="317.61594" fy="303.7291" id="radialGradient4122" xlink:href="#linearGradient4034" gradientUnits="userSpaceOnUse" gradientTransform="matrix(0.7171779,0.1265971,-2.3976809e-2,0.1358296,97.111293,222.26447)" spreadMethod="reflect"/>
    <radialGradient cx="317.61594" cy="303.7291" r="379.17358" fx="317.61594" fy="303.7291" id="radialGradient4124" xlink:href="#linearGradient4034" gradientUnits="userSpaceOnUse" gradientTransform="matrix(0.7171779,0.1265971,-2.3976809e-2,0.1358296,97.111293,222.26447)" spreadMethod="reflect"/>
    <radialGradient cx="280.59381" cy="-542.66449" r="372.10938" fx="280.59381" fy="-542.66449" id="radialGradient4126" xlink:href="#linearGradient4022" gradientUnits="userSpaceOnUse" gradientTransform="matrix(1,0,0,0.2741379,0,272.3367)" spreadMethod="reflect"/>
  </defs>
  <g id="layer1" style="display:inline"/>
  <g id="layer5" style="display:inline"/>
  <g id="layer6" style="opacity:1;display:inline">
    <g transform="matrix(1.5944488,0,0,1.6389949,50.857049,85.455301)" id="g4116">
      <g transform="matrix(0.4999148,0,0,0.4999148,110.7575,-121.45104)" id="g3994" style="fill:url(#radialGradient4124);fill-opacity:1;display:inline">
        <path d="M -4.4192208,250.15061 L 69.910886,250.15061 L 69.910886,357.30759 L 29.783359,357.30759 L 29.783359,281.41047 L 7.6172878,281.41047 C 0.35488593,281.41055 -5.6643342,283.46609 -10.440392,287.57711 C -15.216554,291.68828 -17.604609,296.9857 -17.604563,303.46939 C -17.604609,309.83661 -15.152406,315.19144 -10.247947,319.53394 C -5.3435942,323.8765 0.73783012,326.04776 7.9963445,326.04772 L 20.610186,326.04772 L 20.610186,357.30759 L -4.0401648,357.30759 C -19.198589,357.30759 -32.574418,351.75047 -44.167692,340.63619 C -55.761003,329.52196 -61.55765,317.01644 -61.557647,303.11959 C -61.55765,289.10979 -56.047725,276.77916 -45.027858,266.12769 C -34.008029,255.4764 -20.47183,250.15072 -4.4192208,250.15061 L -4.4192208,250.15061 z M 82.384768,388.56746 L 82.384768,250.15061 L 158.06198,250.15061 C 173.47297,250.15072 186.68843,255.44814 197.7084,266.04289 C 208.72812,276.63782 214.23805,289.51789 214.23819,304.68311 C 214.23805,319.3891 208.69703,331.83633 197.61509,342.02482 C 186.53293,352.21334 173.09197,357.30759 157.29221,357.30759 L 131.6913,357.30759 L 131.6913,326.04772 L 143.15631,326.04772 C 150.79957,326.04776 157.23284,324.07967 162.45612,320.14345 C 167.67924,316.20729 170.29085,311.11215 170.29094,304.85802 C 170.29085,298.83719 167.80657,293.51061 162.83809,288.87828 C 157.48845,283.89981 150.92787,281.41055 143.15631,281.41047 L 122.51813,281.41047 L 122.51813,388.56746 L 82.384768,388.56746 z M 222.34417,388.56746 L 222.34417,250.15061 L 298.02138,250.15061 C 313.43237,250.15072 326.64783,255.44814 337.6678,266.04289 C 348.68753,276.63782 354.19746,289.51789 354.19759,304.68311 C 354.19746,319.3891 348.65644,331.83633 337.5745,342.02482 C 326.49233,352.21334 313.05137,357.30759 297.25162,357.30759 L 271.6507,357.30759 L 271.6507,326.04772 L 283.11571,326.04772 C 290.75897,326.04776 297.19225,324.07967 302.41553,320.14345 C 307.63865,316.20729 310.25025,311.11215 310.25035,304.85802 C 310.25025,298.83719 307.76598,293.51061 302.7975,288.87828 C 297.44786,283.89981 290.88727,281.41055 283.11571,281.41047 L 262.47754,281.41047 L 262.47754,388.56746 L 222.34417,388.56746 z M 362.30357,218.89074 L 402.43694,218.89074 L 402.43694,357.30759 L 362.30357,357.30759 L 362.30357,218.89074 z M 545.10805,326.04772 L 545.10805,357.30759 L 477.26856,357.30759 C 459.17876,357.30759 443.82795,352.5605 431.21609,343.06628 C 417.71389,332.87603 410.9628,319.61877 410.9628,303.29449 C 410.9628,289.40129 417.58753,277.07067 430.83703,266.30259 C 444.08648,255.5347 459.6278,250.15072 477.46101,250.15061 L 545.10805,250.15061 L 545.10805,281.41047 L 518.35832,317.01639 L 472.87734,317.01639 L 501.15497,281.41047 L 480.52262,281.41047 C 472.87534,281.41055 466.69574,283.43694 461.98382,287.48966 C 457.27182,291.54252 454.91584,296.69595 454.91588,302.94999 C 454.91584,309.54686 457.40012,315.0457 462.36871,319.44649 C 467.33722,323.84735 473.38851,326.04776 480.52262,326.04772 L 545.10805,326.04772 z M 595.08847,244.74565 L 572.25054,244.74565 L 572.25054,218.89075 L 630.87707,218.89075 L 630.87707,357.3622 L 572.25054,357.3622 L 572.25054,331.50729 L 595.08847,331.50729 L 595.08847,244.74565 z M 673.95158,244.74565 L 696.78951,244.74565 L 696.78951,218.89075 L 638.16298,218.89075 L 638.16298,263.43304 L 638.16298,357.3622 L 696.78951,357.3622 L 696.78951,331.50729 L 673.95158,331.50729 L 673.95158,244.74565 z" id="flowRoot3883" style="font-size:144px;font-style:normal;font-variant:normal;font-weight:normal;font-stretch:normal;text-align:start;line-height:100%;writing-mode:lr-tb;text-anchor:start;fill:url(#radialGradient4122);fill-opacity:1;stroke:none;stroke-width:1px;stroke-linecap:butt;stroke-linejoin:miter;stroke-opacity:1;font-family:Motter Tektura Cyrilic;-inkscape-font-specification:Motter Tektura Cyrilic"/>
      </g>
      <path d="M 366.5,223.09375 L 366.5,353.125 L 398.25,353.125 L 398.25,223.09375 L 366.5,223.09375 z M 576.4375,223.09375 L 576.4375,240.5625 L 595.09375,240.5625 C 597.40625,240.56297 599.28078,242.4375 599.28125,244.75 L 599.28125,331.5 C 599.28078,333.8125 597.40625,335.68703 595.09375,335.6875 L 576.4375,335.6875 L 576.4375,353.1875 L 626.6875,353.1875 L 626.6875,223.09375 L 576.4375,223.09375 z M 642.34375,223.09375 L 642.34375,263.4375 L 642.34375,353.1875 L 692.59375,353.1875 L 692.59375,335.6875 L 673.9375,335.6875 C 671.625,335.68703 669.75047,333.8125 669.75,331.5 L 669.75,244.75 C 669.75047,242.4375 671.625,240.56297 673.9375,240.5625 L 692.59375,240.5625 L 692.59375,223.09375 L 642.34375,223.09375 z M -4.40625,254.34375 C -19.534054,254.34385 -31.838096,259.18212 -42.125,269.125 C -52.484513,279.13819 -57.375002,290.21353 -57.375,303.125 C -57.375003,315.854 -52.216795,327.08014 -41.25,337.59375 C -30.313257,348.07862 -18.16317,353.125 -4.03125,353.125 L 16.4375,353.125 L 16.4375,330.25 L 8,330.25 C -0.10041227,330.25004 -7.3621313,327.67597 -13.03125,322.65625 C -18.698541,317.63832 -21.781304,310.90561 -21.78125,303.46875 C -21.781303,295.96013 -18.762709,289.20085 -13.15625,284.375 C -7.5810582,279.57612 -0.42360569,277.21885 7.625,277.21875 L 29.78125,277.21875 C 32.093748,277.21922 33.968281,279.09375 33.96875,281.40625 L 33.96875,353.125 L 65.71875,353.125 L 65.71875,254.34375 L -4.40625,254.34375 z M 86.5625,254.34375 L 86.5625,384.375 L 118.34375,384.375 L 118.34375,281.40625 C 118.34422,279.09375 120.21875,277.21922 122.53125,277.21875 L 143.15625,277.21875 C 151.8224,277.21884 159.5966,280.14422 165.6875,285.8125 C 171.31862,291.06264 174.46864,297.67807 174.46875,304.84375 C 174.46864,312.25375 171.08645,318.91322 165,323.5 C 158.99055,328.02867 151.51915,330.25003 143.15625,330.25 L 135.875,330.25 L 135.875,353.125 L 157.28125,353.125 C 172.18108,353.125 184.43115,348.45299 194.78125,338.9375 C 205.12412,329.4285 210.06237,318.34118 210.0625,304.6875 C 210.06237,290.53692 205.1112,278.96421 194.8125,269.0625 C 184.49817,259.14616 172.51693,254.34386 158.0625,254.34375 L 86.5625,254.34375 z M 226.53125,254.34375 L 226.53125,384.375 L 258.28125,384.375 L 258.28125,281.40625 C 258.28172,279.09375 260.15625,277.21922 262.46875,277.21875 L 283.125,277.21875 C 291.79115,277.21884 299.56536,280.14421 305.65625,285.8125 C 311.28737,291.06264 314.43739,297.67807 314.4375,304.84375 C 314.43738,312.26769 311.01754,318.91805 304.9375,323.5 C 298.93446,328.02384 291.48789,330.25003 283.125,330.25 L 275.84375,330.25 L 275.84375,353.125 L 297.25,353.125 C 312.14982,353.125 324.36578,348.45564 334.71875,338.9375 C 345.06162,329.4285 349.99987,318.34118 350,304.6875 C 349.99988,290.53692 345.04872,278.96421 334.75,269.0625 C 324.43282,259.14342 312.48567,254.34386 298.03125,254.34375 L 226.53125,254.34375 z M 477.46875,254.34375 C 460.47911,254.34385 446.03613,259.37433 433.5,269.5625 C 420.93226,279.7765 415.15625,290.7195 415.15625,303.28125 C 415.15625,318.45145 421.10734,330.1772 433.75,339.71875 C 445.59333,348.63442 459.92546,353.125 477.28125,353.125 L 540.90625,353.125 L 540.90625,330.25 L 480.53125,330.25 C 472.52668,330.25004 465.30189,327.61848 459.59375,322.5625 C 453.85015,317.47526 450.71869,310.59255 450.71875,302.9375 C 450.7187,295.63411 453.73529,289.05579 459.25,284.3125 C 464.8126,279.52811 472.13888,277.21885 480.53125,277.21875 L 501.15625,277.21875 C 502.75941,277.22181 504.22017,278.13971 504.91844,279.58281 C 505.61671,281.02591 505.42998,282.74099 504.4375,284 L 481.53125,312.84375 L 516.28125,312.84375 L 540.90625,280.03125 L 540.90625,254.34375 L 477.46875,254.34375 z" transform="matrix(0.4999148,0,0,0.4999148,110.41061,-121.80363)" id="path4012" style="font-size:144px;font-style:normal;font-variant:normal;font-weight:normal;font-stretch:normal;text-align:start;line-height:100%;writing-mode:lr-tb;text-anchor:start;fill:#ffffff;fill-opacity:1;stroke:none;stroke-width:1px;stroke-linecap:butt;stroke-linejoin:miter;stroke-opacity:1;display:inline;font-family:Motter Tektura Cyrilic;-inkscape-font-specification:Motter Tektura Cyrilic"/>
      <path d="M 366.125,222.71875 L 366.125,353.5 L 398.625,353.5 L 398.625,222.71875 L 366.125,222.71875 z M 576.0625,222.71875 L 576.0625,240.9375 L 595.09375,240.9375 C 596.10581,240.93447 597.0773,241.33517 597.79294,242.05081 C 598.50858,242.76645 598.90928,243.73794 598.90625,244.75 L 598.90625,331.5 C 598.90928,332.51206 598.50858,333.48355 597.79294,334.19919 C 597.0773,334.91483 596.10581,335.31553 595.09375,335.3125 L 576.0625,335.3125 L 576.0625,353.5625 L 627.0625,353.5625 L 627.0625,222.71875 L 576.0625,222.71875 z M 641.96875,222.71875 L 641.96875,263.4375 L 641.96875,353.5625 L 692.96875,353.5625 L 692.96875,335.3125 L 673.9375,335.3125 C 672.92544,335.31553 671.95395,334.91483 671.23831,334.19919 C 670.52267,333.48355 670.12197,332.51206 670.125,331.5 L 670.125,244.75 C 670.12197,243.73794 670.52267,242.76645 671.23831,242.05081 C 671.95395,241.33517 672.92544,240.93447 673.9375,240.9375 L 692.96875,240.9375 L 692.96875,222.71875 L 641.96875,222.71875 z M -4.40625,253.96875 C -19.619551,253.96885 -32.020338,258.83538 -42.375,268.84375 C -52.795562,278.91595 -57.750002,290.11199 -57.75,303.125 C -57.750003,315.96196 -52.555965,327.30586 -41.53125,337.875 C -30.533812,348.41806 -18.258069,353.5 -4.03125,353.5 L 16.8125,353.5 L 16.8125,329.875 L 8,329.875 C -0.02257989,329.87504 -7.1828329,327.33212 -12.78125,322.375 C -18.378018,317.41952 -21.406303,310.80672 -21.40625,303.46875 C -21.406303,296.05488 -18.435949,289.44728 -12.90625,284.6875 C -7.4049371,279.95221 -0.35092214,277.59385 7.625,277.59375 L 29.78125,277.59375 C 30.793313,277.59072 31.764798,277.99142 32.480438,278.70706 C 33.196078,279.4227 33.596778,280.39419 33.59375,281.40625 L 33.59375,353.5 L 66.09375,353.5 L 66.09375,253.96875 L -4.40625,253.96875 z M 86.1875,253.96875 L 86.1875,384.75 L 118.71875,384.75 L 118.71875,281.40625 C 118.71572,280.39419 119.11642,279.4227 119.83206,278.70706 C 120.5477,277.99142 121.51919,277.59072 122.53125,277.59375 L 143.15625,277.59375 C 151.7397,277.59384 159.41513,280.48924 165.4375,286.09375 C 171.00736,291.28677 174.09364,297.78391 174.09375,304.84375 C 174.09364,312.14689 170.75663,318.66087 164.75,323.1875 C 158.81323,327.6614 151.45262,329.87503 143.15625,329.875 L 135.5,329.875 L 135.5,353.5 L 157.28125,353.5 C 172.26428,353.5 184.64472,348.79646 195.0625,339.21875 C 205.4737,329.64693 210.43737,318.43847 210.4375,304.6875 C 210.43737,290.44312 205.45911,278.74705 195.09375,268.78125 C 184.71419,258.8022 172.60536,253.96886 158.0625,253.96875 L 86.1875,253.96875 z M 226.15625,253.96875 L 226.15625,384.75 L 258.65625,384.75 L 258.65625,281.40625 C 258.65322,280.39419 259.05392,279.4227 259.76956,278.70706 C 260.4852,277.99142 261.45669,277.59072 262.46875,277.59375 L 283.125,277.59375 C 291.70845,277.59384 299.38389,280.48923 305.40625,286.09375 C 310.97611,291.28677 314.06239,297.78391 314.0625,304.84375 C 314.06238,312.15955 310.68831,318.66526 304.6875,323.1875 C 298.75654,327.65702 291.42136,329.87503 283.125,329.875 L 275.46875,329.875 L 275.46875,353.5 L 297.25,353.5 C 312.23302,353.5 324.57961,348.79887 335,339.21875 C 345.4112,329.64693 350.37487,318.43847 350.375,304.6875 C 350.37488,290.44312 345.39662,278.74705 335.03125,268.78125 C 324.6491,258.79971 312.5741,253.96886 298.03125,253.96875 L 226.15625,253.96875 z M 477.46875,253.96875 C 460.40112,253.96886 445.85207,259.00824 433.25,269.25 C 420.61923,279.51523 414.78125,290.59641 414.78125,303.28125 C 414.78125,318.55814 420.77787,330.42973 433.5,340.03125 C 445.41438,349.00041 459.8576,353.5 477.28125,353.5 L 541.28125,353.5 L 541.28125,329.875 L 480.53125,329.875 C 472.60716,329.87504 465.48351,327.27666 459.84375,322.28125 C 454.1718,317.25747 451.09369,310.49472 451.09375,302.9375 C 451.0937,295.73112 454.05949,289.30446 459.5,284.625 C 464.98395,279.90825 472.20776,277.59385 480.53125,277.59375 L 501.15625,277.59375 C 502.62197,277.58988 503.95934,278.42908 504.59339,279.75057 C 505.22743,281.07206 505.04519,282.64037 504.125,283.78125 L 480.75,313.21875 L 516.46875,313.21875 L 541.28125,280.15625 L 541.28125,253.96875 L 477.46875,253.96875 z" transform="matrix(0.4999148,0,0,0.4999148,110.41073,-121.70377)" id="path4019" style="font-size:144px;font-style:normal;font-variant:normal;font-weight:normal;font-stretch:normal;text-align:start;line-height:100%;writing-mode:lr-tb;text-anchor:start;fill:url(#radialGradient4126);fill-opacity:1;stroke:none;stroke-width:1px;stroke-linecap:butt;stroke-linejoin:miter;stroke-opacity:1;display:inline;font-family:Motter Tektura Cyrilic;-inkscape-font-specification:Motter Tektura Cyrilic"/>
    </g>
    <g transform="matrix(0.4891371,0,0,0.4891371,17.746181,-230.11468)" id="g4193">
      <path d="M 185.88236,946.36298 C 193.35236,945.90762 203.13928,944.51095 225.44053,957.12006 C 306.13658,990.88883 344.15281,903.03023 372.02776,842.82754 C 323.05572,818.58695 260.55381,735.16558 356.35558,655.23082 C 333.90219,627.53569 302.97676,612.9107 268.11947,612.36218 C 251.4154,612.17633 234.32726,614.83978 220.62937,622.05646 C 205.29222,630.13678 193.66696,632.20544 192.61057,632.35602 C 191.55418,632.5066 179.85339,632.45074 178.797,632.30016 C 177.74061,632.14958 162.10374,630.39654 149.70677,623.78631 C 136.04492,616.50164 119.99217,612.12047 103.2881,612.30632 C -25.198016,613.73589 -71.039786,803.60646 67.979694,949.7406 C 88.143544,970.93638 128.39879,966.99728 145.96704,957.0642 C 168.26829,944.45509 178.00361,946.84327 185.88236,946.36298 z" id="path4148" style="fill:#008000;fill-rule:evenodd;stroke:#008000;stroke-width:1px;stroke-linecap:butt;stroke-linejoin:miter;stroke-opacity:1"/>
      <path d="M 5.625,668.78125 C -35.138308,736.41223 -24.332221,852.72531 67.96875,949.75 C 88.132593,970.94578 128.4005,966.99558 145.96875,957.0625 C 168.27,944.45338 177.99625,946.85529 185.875,946.375 C 193.34501,945.91964 203.13625,944.51589 225.4375,957.125 C 306.13355,990.89377 344.1563,903.01519 372.03125,842.8125 C 325.82095,819.93897 267.58942,744.39116 341.65625,668.78125 L 5.625,668.78125 z" id="path4165" style="fill:#ffff00;fill-rule:evenodd;stroke:#ffff00;stroke-width:1px;stroke-linecap:butt;stroke-linejoin:miter;stroke-opacity:1;display:inline"/>
      <path d="M -14.875,728.0625 C -24.515465,793.77758 -1.0846583,877.16262 67.96875,949.75 C 88.132593,970.94578 128.4005,966.99558 145.96875,957.0625 C 168.27,944.45338 177.99625,946.85529 185.875,946.375 C 193.34501,945.91964 203.13625,944.51589 225.4375,957.125 C 306.13355,990.89377 344.1563,903.01519 372.03125,842.8125 C 338.10103,826.01745 297.70651,780.83295 307.9375,728.0625 L -14.875,728.0625 z" id="path4167" style="fill:#ff6600;fill-rule:evenodd;stroke:#ff6600;stroke-width:1px;stroke-linecap:butt;stroke-linejoin:miter;stroke-opacity:1;display:inline"/>
      <path d="M -14.9375,786.625 C -7.8666874,839.50316 18.194889,897.42884 67.96875,949.75 C 88.132593,970.94578 128.4005,966.99558 145.96875,957.0625 C 168.27,944.45338 177.99625,946.85529 185.875,946.375 C 193.34501,945.91964 203.13625,944.51589 225.4375,957.125 C 306.13355,990.89377 344.1563,903.01519 372.03125,842.8125 C 351.73085,832.76405 329.11659,812.54832 316.40625,786.625 L -14.9375,786.625 z" id="path4169" style="fill:#ff0000;fill-rule:evenodd;stroke:#ff0000;stroke-width:1px;stroke-linecap:butt;stroke-linejoin:miter;stroke-opacity:1;display:inline"/>
      <path d="M 1.4375,848.0625 C 15.187143,882.41585 36.976413,917.17156 67.96875,949.75 C 88.132593,970.94578 128.4005,966.99558 145.96875,957.0625 C 168.27,944.45338 177.99625,946.85529 185.875,946.375 C 193.34501,945.91964 203.13625,944.51589 225.4375,957.125 C 303.85194,989.93899 341.95566,907.96672 369.625,848.0625 L 1.4375,848.0625 z" id="path4171" style="fill:#800080;fill-rule:evenodd;stroke:#800080;stroke-width:1px;stroke-linecap:butt;stroke-linejoin:miter;stroke-opacity:1;display:inline"/>
      <path d="M 33.9375,908.09375 C 43.740811,922.23261 55.058975,936.17954 67.96875,949.75 C 88.132593,970.94578 128.4005,966.99558 145.96875,957.0625 C 168.27,944.45338 177.99625,946.85529 185.875,946.375 C 193.34501,945.91964 203.13625,944.51589 225.4375,957.125 C 278.63718,979.3874 313.29513,948.78149 338.71875,908.09375 L 33.9375,908.09375 z" id="path4173" style="fill:#0000ff;fill-rule:evenodd;stroke:#0000ff;stroke-width:1px;stroke-linecap:butt;stroke-linejoin:miter;stroke-opacity:1;display:inline"/>
      <path d="M 266.93281,504.35442 C 264.36506,578.41754 227.66285,607.94403 174.75639,616.22882 C 175.87528,554.04091 206.55165,516.70815 266.93281,504.35442 z" id="path4154" style="fill:#008000;fill-rule:evenodd;stroke:#008000;stroke-width:1px;stroke-linecap:butt;stroke-linejoin:miter;stroke-opacity:1"/>
    </g>
  </g>
</svg>