<?xml version="1.0" encoding="UTF-8" standalone="no"?>
<!-- Created with Inkscape (http://www.inkscape.org/) -->
<svg xmlns="http://www.w3.org/2000/svg" height="116" width="350" version="1.1">
  <g transform="matrix(2,0,0,-2,-422.8022,899.2476)" fill="#f91b20">
    <path d="m363.4922 416.1914h22.6103v-5.5547h-7.58v-16.9101h-7.4493v16.9101h-7.581v5.5547z"/>
    <path d="m339.5391 401.1582 7.0996 0.4111c0.1533-1.0673 0.4687-1.8818 0.9424-2.4404 0.7695-0.9062 1.8701-1.3584 3.3027-1.3584 1.0674 0 1.8896 0.2324 2.4668 0.6973 0.5781 0.4638 0.8682 1.0029 0.8682 1.6152 0 0.582-0.2764 1.1025-0.8301 1.5625-0.5528 0.46-1.8291 0.8936-3.8252 1.3018-3.2705 0.6816-5.6035 1.5908-6.9961 2.7216-1.4053 1.1329-2.1084 2.5752-2.1084 4.3291 0 1.1514 0.3594 2.2383 1.0791 3.2647 0.7187 1.0244 1.8008 1.8311 3.2441 2.418 1.4424 0.5839 3.4199 0.8779 5.9346 0.8779 3.084 0 5.4365-0.5332 7.0547-1.5977 1.6181-1.0673 2.582-2.7597 2.8896-5.0859l-7.0107-0.3828c-0.1895 1.0117-0.584 1.749-1.1856 2.2109-0.6015 0.46-1.4316 0.6895-2.4921 0.6895-0.8721 0-1.5293-0.1709-1.9698-0.5137-0.4424-0.3418-0.6631-0.7578-0.6631-1.248 0-0.3575 0.1836-0.6788 0.5528-0.9649 0.3564-0.2959 1.1933-0.5713 2.5097-0.8271 3.2598-0.6534 5.5948-1.3116 7.0049-1.9805 1.4102-0.6689 2.4366-1.499 3.0782-2.4893 0.6435-0.9902 0.9638-2.0986 0.9638-3.3232 0-1.4404-0.4287-2.7646-1.2842-3.9795-0.8574-1.2158-2.0537-2.1367-3.5918-2.7646-1.538-0.628-3.4765-0.9424-5.8164-0.9424-4.1074 0-6.9502 0.7353-8.5332 2.2002-1.58 1.4707-2.4756 3.334-2.6845 5.5986z"/>
    <path d="m329.5127 397.4434h-8.4297l-1.2148-3.7168h-7.6006l9.0293 22.4648h8.1699l9.0478-22.4648h-7.7939l-1.208 3.7168m-1.5772 4.8603-2.6308 8.0693-2.6358-8.0693h5.2666z"/>
    <path d="m290.375 416.1914h19.9814v-4.7793h-12.5322v-3.5937h11.6123v-4.5752h-11.6123v-4.4112h12.8828v-5.1054h-20.332v22.4648z"/>
    <path d="m375.8193 428.8467h-8.4306l-1.2158-3.7168h-7.5987l9.0293 22.4639h8.169l9.0488-22.4639h-7.794l-1.208 3.7168m-1.5791 4.8603-2.6308 8.0694-2.6348-8.0694h5.2656z"/>
    <path d="m337.2998 447.5938h22.6104v-5.5547h-7.5801v-16.9092h-7.4492v16.9092h-7.5811v5.5547z"/>
    <path d="m329.9404 428.8467h-8.4306l-1.2149-3.7168h-7.5996l9.0293 22.4639h8.1699l9.0479-22.4639h-7.794l-1.208 3.7168m-1.5781 4.8603-2.6318 8.0694-2.6338-8.0694h5.2656z"/>
    <path d="m290.5063 447.5938h11.0396c2.1758 0 3.9346-0.2754 5.2744-0.8272 1.3399-0.5518 2.4473-1.3447 3.3203-2.376 0.876-1.0322 1.5098-2.2314 1.9033-3.6025 0.3936-1.3682 0.5909-2.8184 0.5909-4.3496 0-2.3994-0.293-4.2627-0.878-5.585-0.5849-1.3232-1.3974-2.4336-2.4355-3.3262-1.0391-0.8935-2.1563-1.4882-3.3467-1.7851-1.6299-0.4082-3.1055-0.6123-4.4287-0.6123h-11.0396v22.4639m7.4493-5.1055v-12.2529h1.809c1.543 0 2.6397 0.1611 3.292 0.4824 0.6514 0.3193 1.1631 0.8808 1.5313 1.6826 0.3691 0.7988 0.5537 2.0976 0.5537 3.8926 0 2.3769-0.4131 4.0029-1.2373 4.8779-0.8272 0.8779-2.1973 1.3174-4.1084 1.3174h-1.8403z"/>
    <path d="m216.375 449.5c-0.0845 0-0.166-0.01-0.2505-0.0103h-4.4248v-7.9554l3.4321 0.007c11.5518 0 20.917-9.3652 20.917-20.917 0-11.522-9.3178-20.8657-20.8286-20.9136l-3.5205-0.004v-7.9592h4.7969v0.005c15.8906 0.0664 28.7534 12.9659 28.7534 28.8721 0 15.9468-12.9282 28.875-28.875 28.875z"/>
    <path d="m232.5947 420.6245c0 9.9263-8.0473 17.9736-17.9736 17.9736-0.0532 0-2.9107-0.006-2.9107-0.006v-35.9414l2.9864 0.003c9.8916 0.042 17.8979 8.0703 17.8979 17.9712z"/>
    <path d="m257.418 419.3828c0.6386-9.3193 8.3628-16.6894 17.8354-16.7295l2.9863-0.003v16.7324h-20.8217z"/>
    <path d="m278.2397 421.8828v16.709s-2.8574 0.006-2.9106 0.006c-9.5015 0-17.2617-7.3784-17.9102-16.7153h20.8208z"/>
    <path d="m273.5752 449.5c0.0845 0 0.166-0.01 0.2505-0.0103h4.4248v-7.9554l-3.4321 0.007c-11.5518 0-20.917-9.3652-20.917-20.917 0-11.522 9.3178-20.8657 20.8286-20.9136l3.5205-0.004v-7.9592h-4.7969v0.005c-15.8906 0.0664-28.7534 12.9659-28.7534 28.8721 0 15.9468 12.9282 28.875 28.875 28.875z"/>
  </g>
</svg>
